<svg xmlns="http://www.w3.org/2000/svg" xmlns:xlink="http://www.w3.org/1999/xlink" width="200" zoomAndPan="magnify" viewBox="0 0 150 30.000001" height="40" preserveAspectRatio="xMidYMid meet" version="1.0"><defs><g/><clipPath id="id1"><path d="M 2.417969 0 L 147.578125 0 L 147.578125 29.03125 L 2.417969 29.03125 Z M 2.417969 0 " clip-rule="nonzero"/></clipPath></defs><g clip-path="url(#id1)"><path fill="#ffffff" d="M 135.226562 0 L 2.417969 0 L 2.417969 29.03125 L 147.582031 29.03125 L 147.582031 0 L 135.226562 0 " fill-opacity="1" fill-rule="nonzero"/></g><path fill="#302e2e" d="M 132.589844 4.132812 L 6.550781 4.132812 L 6.550781 24.898438 L 143.449219 24.898438 L 143.449219 4.132812 L 132.589844 4.132812 M 143.195312 13.914062 L 143.195312 24.648438 L 6.804688 24.648438 L 6.804688 4.386719 L 143.195312 4.386719 L 143.195312 13.914062 M 132.589844 1.941406 L 4.359375 1.941406 L 4.359375 27.09375 L 145.640625 27.09375 L 145.640625 1.941406 L 132.589844 1.941406 M 144.714844 13.832031 L 144.714844 26.164062 L 5.285156 26.164062 L 5.285156 2.867188 L 144.714844 2.867188 L 144.714844 13.832031 " fill-opacity="1" fill-rule="nonzero"/><g fill="#000000" fill-opacity="1"><g transform="translate(8.685103, 17.545675)"><g><path d="M 3.609375 0.109375 C 3.171875 0.109375 2.734375 0.09375 2.296875 0.0625 C 1.859375 0.03125 1.398438 -0.03125 0.921875 -0.125 L 0.921875 -7.921875 C 1.296875 -7.992188 1.703125 -8.046875 2.140625 -8.078125 C 2.585938 -8.117188 3 -8.140625 3.375 -8.140625 C 3.882812 -8.140625 4.351562 -8.101562 4.78125 -8.03125 C 5.21875 -7.957031 5.585938 -7.832031 5.890625 -7.65625 C 6.203125 -7.476562 6.445312 -7.242188 6.625 -6.953125 C 6.800781 -6.660156 6.890625 -6.300781 6.890625 -5.875 C 6.890625 -5.226562 6.578125 -4.722656 5.953125 -4.359375 C 6.460938 -4.160156 6.8125 -3.894531 7 -3.5625 C 7.1875 -3.226562 7.28125 -2.851562 7.28125 -2.4375 C 7.28125 -1.59375 6.972656 -0.957031 6.359375 -0.53125 C 5.742188 -0.101562 4.828125 0.109375 3.609375 0.109375 Z M 2.6875 -3.5 L 2.6875 -1.421875 C 2.820312 -1.410156 2.96875 -1.398438 3.125 -1.390625 C 3.28125 -1.378906 3.453125 -1.375 3.640625 -1.375 C 4.179688 -1.375 4.613281 -1.453125 4.9375 -1.609375 C 5.269531 -1.765625 5.4375 -2.050781 5.4375 -2.46875 C 5.4375 -2.84375 5.296875 -3.109375 5.015625 -3.265625 C 4.742188 -3.421875 4.347656 -3.5 3.828125 -3.5 Z M 2.6875 -4.890625 L 3.578125 -4.890625 C 4.128906 -4.890625 4.523438 -4.957031 4.765625 -5.09375 C 5.003906 -5.238281 5.125 -5.472656 5.125 -5.796875 C 5.125 -6.117188 5 -6.34375 4.75 -6.46875 C 4.507812 -6.601562 4.148438 -6.671875 3.671875 -6.671875 C 3.515625 -6.671875 3.347656 -6.664062 3.171875 -6.65625 C 2.992188 -6.65625 2.832031 -6.648438 2.6875 -6.640625 Z M 2.6875 -4.890625 "/></g></g></g><g fill="#000000" fill-opacity="1"><g transform="translate(16.488996, 17.545675)"><g><path d="M 6.03125 -0.203125 C 5.726562 -0.117188 5.34375 -0.0390625 4.875 0.03125 C 4.414062 0.101562 3.929688 0.140625 3.421875 0.140625 C 2.898438 0.140625 2.46875 0.0703125 2.125 -0.0625 C 1.78125 -0.207031 1.507812 -0.40625 1.3125 -0.65625 C 1.113281 -0.90625 0.96875 -1.203125 0.875 -1.546875 C 0.789062 -1.898438 0.75 -2.285156 0.75 -2.703125 L 0.75 -6.109375 L 2.484375 -6.109375 L 2.484375 -2.90625 C 2.484375 -2.351562 2.554688 -1.953125 2.703125 -1.703125 C 2.847656 -1.453125 3.125 -1.328125 3.53125 -1.328125 C 3.65625 -1.328125 3.785156 -1.332031 3.921875 -1.34375 C 4.066406 -1.363281 4.191406 -1.378906 4.296875 -1.390625 L 4.296875 -6.109375 L 6.03125 -6.109375 Z M 6.03125 -0.203125 "/></g></g></g><g fill="#000000" fill-opacity="1"><g transform="translate(23.329015, 17.545675)"><g><path d="M 2.5625 -1.25 C 2.882812 -1.25 3.109375 -1.273438 3.234375 -1.328125 C 3.367188 -1.390625 3.4375 -1.507812 3.4375 -1.6875 C 3.4375 -1.832031 3.347656 -1.957031 3.171875 -2.0625 C 3.003906 -2.164062 2.75 -2.285156 2.40625 -2.421875 C 2.132812 -2.515625 1.882812 -2.613281 1.65625 -2.71875 C 1.4375 -2.832031 1.25 -2.960938 1.09375 -3.109375 C 0.945312 -3.265625 0.828125 -3.445312 0.734375 -3.65625 C 0.648438 -3.863281 0.609375 -4.113281 0.609375 -4.40625 C 0.609375 -4.976562 0.820312 -5.429688 1.25 -5.765625 C 1.675781 -6.097656 2.257812 -6.265625 3 -6.265625 C 3.375 -6.265625 3.726562 -6.234375 4.0625 -6.171875 C 4.40625 -6.109375 4.679688 -6.035156 4.890625 -5.953125 L 4.578125 -4.609375 C 4.378906 -4.679688 4.160156 -4.742188 3.921875 -4.796875 C 3.691406 -4.847656 3.429688 -4.875 3.140625 -4.875 C 2.597656 -4.875 2.328125 -4.722656 2.328125 -4.421875 C 2.328125 -4.347656 2.335938 -4.285156 2.359375 -4.234375 C 2.378906 -4.179688 2.421875 -4.128906 2.484375 -4.078125 C 2.554688 -4.023438 2.648438 -3.96875 2.765625 -3.90625 C 2.890625 -3.851562 3.046875 -3.796875 3.234375 -3.734375 C 3.617188 -3.585938 3.929688 -3.445312 4.171875 -3.3125 C 4.421875 -3.175781 4.617188 -3.03125 4.765625 -2.875 C 4.910156 -2.71875 5.007812 -2.539062 5.0625 -2.34375 C 5.125 -2.15625 5.15625 -1.929688 5.15625 -1.671875 C 5.15625 -1.066406 4.925781 -0.609375 4.46875 -0.296875 C 4.019531 0.00390625 3.378906 0.15625 2.546875 0.15625 C 2.003906 0.15625 1.550781 0.109375 1.1875 0.015625 C 0.832031 -0.0664062 0.585938 -0.140625 0.453125 -0.203125 L 0.75 -1.609375 C 1.039062 -1.492188 1.335938 -1.40625 1.640625 -1.34375 C 1.953125 -1.28125 2.257812 -1.25 2.5625 -1.25 Z M 2.5625 -1.25 "/></g></g></g><g fill="#000000" fill-opacity="1"><g transform="translate(28.96128, 17.545675)"><g><path d="M 2.546875 0 L 0.8125 0 L 0.8125 -6.109375 L 2.546875 -6.109375 Z M 2.703125 -7.875 C 2.703125 -7.550781 2.597656 -7.296875 2.390625 -7.109375 C 2.191406 -6.929688 1.953125 -6.84375 1.671875 -6.84375 C 1.390625 -6.84375 1.144531 -6.929688 0.9375 -7.109375 C 0.738281 -7.296875 0.640625 -7.550781 0.640625 -7.875 C 0.640625 -8.1875 0.738281 -8.429688 0.9375 -8.609375 C 1.144531 -8.796875 1.390625 -8.890625 1.671875 -8.890625 C 1.953125 -8.890625 2.191406 -8.796875 2.390625 -8.609375 C 2.597656 -8.429688 2.703125 -8.1875 2.703125 -7.875 Z M 2.703125 -7.875 "/></g></g></g><g fill="#000000" fill-opacity="1"><g transform="translate(32.317415, 17.545675)"><g><path d="M 0.8125 -5.890625 C 1.101562 -5.984375 1.476562 -6.066406 1.9375 -6.140625 C 2.40625 -6.210938 2.894531 -6.25 3.40625 -6.25 C 3.925781 -6.25 4.359375 -6.179688 4.703125 -6.046875 C 5.046875 -5.910156 5.316406 -5.71875 5.515625 -5.46875 C 5.722656 -5.21875 5.867188 -4.921875 5.953125 -4.578125 C 6.035156 -4.242188 6.078125 -3.867188 6.078125 -3.453125 L 6.078125 0 L 4.359375 0 L 4.359375 -3.234375 C 4.359375 -3.796875 4.28125 -4.191406 4.125 -4.421875 C 3.976562 -4.648438 3.707031 -4.765625 3.3125 -4.765625 C 3.1875 -4.765625 3.050781 -4.757812 2.90625 -4.75 C 2.769531 -4.738281 2.648438 -4.726562 2.546875 -4.71875 L 2.546875 0 L 0.8125 0 Z M 0.8125 -5.890625 "/></g></g></g><g fill="#000000" fill-opacity="1"><g transform="translate(39.157434, 17.545675)"><g><path d="M 0.515625 -3 C 0.515625 -3.539062 0.597656 -4.015625 0.765625 -4.421875 C 0.929688 -4.828125 1.148438 -5.164062 1.421875 -5.4375 C 1.691406 -5.707031 2.003906 -5.910156 2.359375 -6.046875 C 2.710938 -6.191406 3.078125 -6.265625 3.453125 -6.265625 C 4.316406 -6.265625 5 -6 5.5 -5.46875 C 6 -4.9375 6.25 -4.160156 6.25 -3.140625 C 6.25 -3.035156 6.242188 -2.921875 6.234375 -2.796875 C 6.234375 -2.679688 6.226562 -2.578125 6.21875 -2.484375 L 2.296875 -2.484375 C 2.335938 -2.128906 2.503906 -1.847656 2.796875 -1.640625 C 3.085938 -1.429688 3.484375 -1.328125 3.984375 -1.328125 C 4.296875 -1.328125 4.601562 -1.351562 4.90625 -1.40625 C 5.21875 -1.46875 5.472656 -1.539062 5.671875 -1.625 L 5.890625 -0.21875 C 5.804688 -0.175781 5.6875 -0.128906 5.53125 -0.078125 C 5.375 -0.0351562 5.195312 0 5 0.03125 C 4.8125 0.0703125 4.609375 0.101562 4.390625 0.125 C 4.179688 0.144531 3.96875 0.15625 3.75 0.15625 C 3.195312 0.15625 2.71875 0.078125 2.3125 -0.078125 C 1.90625 -0.242188 1.566406 -0.46875 1.296875 -0.75 C 1.035156 -1.03125 0.835938 -1.363281 0.703125 -1.75 C 0.578125 -2.132812 0.515625 -2.550781 0.515625 -3 Z M 4.578125 -3.671875 C 4.578125 -3.816406 4.554688 -3.957031 4.515625 -4.09375 C 4.472656 -4.238281 4.40625 -4.363281 4.3125 -4.46875 C 4.21875 -4.570312 4.101562 -4.660156 3.96875 -4.734375 C 3.832031 -4.804688 3.664062 -4.84375 3.46875 -4.84375 C 3.28125 -4.84375 3.113281 -4.804688 2.96875 -4.734375 C 2.832031 -4.671875 2.71875 -4.582031 2.625 -4.46875 C 2.53125 -4.363281 2.457031 -4.238281 2.40625 -4.09375 C 2.351562 -3.957031 2.316406 -3.816406 2.296875 -3.671875 Z M 4.578125 -3.671875 "/></g></g></g><g fill="#000000" fill-opacity="1"><g transform="translate(45.939387, 17.545675)"><g><path d="M 2.5625 -1.25 C 2.882812 -1.25 3.109375 -1.273438 3.234375 -1.328125 C 3.367188 -1.390625 3.4375 -1.507812 3.4375 -1.6875 C 3.4375 -1.832031 3.347656 -1.957031 3.171875 -2.0625 C 3.003906 -2.164062 2.75 -2.285156 2.40625 -2.421875 C 2.132812 -2.515625 1.882812 -2.613281 1.65625 -2.71875 C 1.4375 -2.832031 1.25 -2.960938 1.09375 -3.109375 C 0.945312 -3.265625 0.828125 -3.445312 0.734375 -3.65625 C 0.648438 -3.863281 0.609375 -4.113281 0.609375 -4.40625 C 0.609375 -4.976562 0.820312 -5.429688 1.25 -5.765625 C 1.675781 -6.097656 2.257812 -6.265625 3 -6.265625 C 3.375 -6.265625 3.726562 -6.234375 4.0625 -6.171875 C 4.40625 -6.109375 4.679688 -6.035156 4.890625 -5.953125 L 4.578125 -4.609375 C 4.378906 -4.679688 4.160156 -4.742188 3.921875 -4.796875 C 3.691406 -4.847656 3.429688 -4.875 3.140625 -4.875 C 2.597656 -4.875 2.328125 -4.722656 2.328125 -4.421875 C 2.328125 -4.347656 2.335938 -4.285156 2.359375 -4.234375 C 2.378906 -4.179688 2.421875 -4.128906 2.484375 -4.078125 C 2.554688 -4.023438 2.648438 -3.96875 2.765625 -3.90625 C 2.890625 -3.851562 3.046875 -3.796875 3.234375 -3.734375 C 3.617188 -3.585938 3.929688 -3.445312 4.171875 -3.3125 C 4.421875 -3.175781 4.617188 -3.03125 4.765625 -2.875 C 4.910156 -2.71875 5.007812 -2.539062 5.0625 -2.34375 C 5.125 -2.15625 5.15625 -1.929688 5.15625 -1.671875 C 5.15625 -1.066406 4.925781 -0.609375 4.46875 -0.296875 C 4.019531 0.00390625 3.378906 0.15625 2.546875 0.15625 C 2.003906 0.15625 1.550781 0.109375 1.1875 0.015625 C 0.832031 -0.0664062 0.585938 -0.140625 0.453125 -0.203125 L 0.75 -1.609375 C 1.039062 -1.492188 1.335938 -1.40625 1.640625 -1.34375 C 1.953125 -1.28125 2.257812 -1.25 2.5625 -1.25 Z M 2.5625 -1.25 "/></g></g></g><g fill="#000000" fill-opacity="1"><g transform="translate(51.571653, 17.545675)"><g><path d="M 2.5625 -1.25 C 2.882812 -1.25 3.109375 -1.273438 3.234375 -1.328125 C 3.367188 -1.390625 3.4375 -1.507812 3.4375 -1.6875 C 3.4375 -1.832031 3.347656 -1.957031 3.171875 -2.0625 C 3.003906 -2.164062 2.75 -2.285156 2.40625 -2.421875 C 2.132812 -2.515625 1.882812 -2.613281 1.65625 -2.71875 C 1.4375 -2.832031 1.25 -2.960938 1.09375 -3.109375 C 0.945312 -3.265625 0.828125 -3.445312 0.734375 -3.65625 C 0.648438 -3.863281 0.609375 -4.113281 0.609375 -4.40625 C 0.609375 -4.976562 0.820312 -5.429688 1.25 -5.765625 C 1.675781 -6.097656 2.257812 -6.265625 3 -6.265625 C 3.375 -6.265625 3.726562 -6.234375 4.0625 -6.171875 C 4.40625 -6.109375 4.679688 -6.035156 4.890625 -5.953125 L 4.578125 -4.609375 C 4.378906 -4.679688 4.160156 -4.742188 3.921875 -4.796875 C 3.691406 -4.847656 3.429688 -4.875 3.140625 -4.875 C 2.597656 -4.875 2.328125 -4.722656 2.328125 -4.421875 C 2.328125 -4.347656 2.335938 -4.285156 2.359375 -4.234375 C 2.378906 -4.179688 2.421875 -4.128906 2.484375 -4.078125 C 2.554688 -4.023438 2.648438 -3.96875 2.765625 -3.90625 C 2.890625 -3.851562 3.046875 -3.796875 3.234375 -3.734375 C 3.617188 -3.585938 3.929688 -3.445312 4.171875 -3.3125 C 4.421875 -3.175781 4.617188 -3.03125 4.765625 -2.875 C 4.910156 -2.71875 5.007812 -2.539062 5.0625 -2.34375 C 5.125 -2.15625 5.15625 -1.929688 5.15625 -1.671875 C 5.15625 -1.066406 4.925781 -0.609375 4.46875 -0.296875 C 4.019531 0.00390625 3.378906 0.15625 2.546875 0.15625 C 2.003906 0.15625 1.550781 0.109375 1.1875 0.015625 C 0.832031 -0.0664062 0.585938 -0.140625 0.453125 -0.203125 L 0.75 -1.609375 C 1.039062 -1.492188 1.335938 -1.40625 1.640625 -1.34375 C 1.953125 -1.28125 2.257812 -1.25 2.5625 -1.25 Z M 2.5625 -1.25 "/></g></g></g><g fill="#000000" fill-opacity="1"><g transform="translate(57.203918, 17.545675)"><g/></g></g><g fill="#000000" fill-opacity="1"><g transform="translate(59.991023, 17.545675)"><g><path d="M 4.59375 0.15625 C 3.289062 0.15625 2.296875 -0.203125 1.609375 -0.921875 C 0.921875 -1.648438 0.578125 -2.6875 0.578125 -4.03125 C 0.578125 -4.695312 0.679688 -5.289062 0.890625 -5.8125 C 1.097656 -6.332031 1.382812 -6.769531 1.75 -7.125 C 2.113281 -7.488281 2.546875 -7.765625 3.046875 -7.953125 C 3.554688 -8.140625 4.101562 -8.234375 4.6875 -8.234375 C 5.03125 -8.234375 5.335938 -8.207031 5.609375 -8.15625 C 5.890625 -8.101562 6.132812 -8.039062 6.34375 -7.96875 C 6.550781 -7.90625 6.722656 -7.835938 6.859375 -7.765625 C 7.003906 -7.703125 7.109375 -7.648438 7.171875 -7.609375 L 6.65625 -6.15625 C 6.40625 -6.28125 6.113281 -6.390625 5.78125 -6.484375 C 5.457031 -6.578125 5.085938 -6.625 4.671875 -6.625 C 4.390625 -6.625 4.113281 -6.578125 3.84375 -6.484375 C 3.582031 -6.390625 3.347656 -6.238281 3.140625 -6.03125 C 2.929688 -5.832031 2.765625 -5.570312 2.640625 -5.25 C 2.523438 -4.925781 2.46875 -4.53125 2.46875 -4.0625 C 2.46875 -3.6875 2.503906 -3.335938 2.578125 -3.015625 C 2.660156 -2.703125 2.789062 -2.425781 2.96875 -2.1875 C 3.15625 -1.957031 3.394531 -1.773438 3.6875 -1.640625 C 3.988281 -1.503906 4.347656 -1.4375 4.765625 -1.4375 C 5.023438 -1.4375 5.257812 -1.453125 5.46875 -1.484375 C 5.675781 -1.515625 5.859375 -1.550781 6.015625 -1.59375 C 6.179688 -1.632812 6.328125 -1.679688 6.453125 -1.734375 C 6.578125 -1.796875 6.691406 -1.847656 6.796875 -1.890625 L 7.296875 -0.4375 C 7.035156 -0.28125 6.671875 -0.140625 6.203125 -0.015625 C 5.742188 0.0976562 5.207031 0.15625 4.59375 0.15625 Z M 4.59375 0.15625 "/></g></g></g><g fill="#000000" fill-opacity="1"><g transform="translate(67.516203, 17.545675)"><g><path d="M 6.234375 -6.109375 C 5.890625 -4.929688 5.523438 -3.828125 5.140625 -2.796875 C 4.765625 -1.765625 4.351562 -0.765625 3.90625 0.203125 C 3.738281 0.546875 3.570312 0.835938 3.40625 1.078125 C 3.25 1.328125 3.070312 1.53125 2.875 1.6875 C 2.6875 1.84375 2.46875 1.957031 2.21875 2.03125 C 1.976562 2.101562 1.695312 2.140625 1.375 2.140625 C 1.101562 2.140625 0.851562 2.113281 0.625 2.0625 C 0.394531 2.019531 0.207031 1.96875 0.0625 1.90625 L 0.359375 0.515625 C 0.535156 0.578125 0.691406 0.617188 0.828125 0.640625 C 0.972656 0.671875 1.125 0.6875 1.28125 0.6875 C 1.582031 0.6875 1.816406 0.601562 1.984375 0.4375 C 2.148438 0.269531 2.296875 0.0390625 2.421875 -0.25 C 2.023438 -1.03125 1.628906 -1.898438 1.234375 -2.859375 C 0.835938 -3.828125 0.460938 -4.910156 0.109375 -6.109375 L 1.953125 -6.109375 C 2.023438 -5.804688 2.113281 -5.476562 2.21875 -5.125 C 2.320312 -4.769531 2.429688 -4.410156 2.546875 -4.046875 C 2.671875 -3.691406 2.789062 -3.34375 2.90625 -3 C 3.03125 -2.664062 3.144531 -2.359375 3.25 -2.078125 C 3.351562 -2.359375 3.457031 -2.664062 3.5625 -3 C 3.675781 -3.34375 3.785156 -3.691406 3.890625 -4.046875 C 3.992188 -4.410156 4.09375 -4.769531 4.1875 -5.125 C 4.28125 -5.476562 4.367188 -5.804688 4.453125 -6.109375 Z M 6.234375 -6.109375 "/></g></g></g><g fill="#000000" fill-opacity="1"><g transform="translate(73.868472, 17.545675)"><g><path d="M 4.71875 -3.09375 C 4.71875 -4.207031 4.3125 -4.765625 3.5 -4.765625 C 3.320312 -4.765625 3.144531 -4.738281 2.96875 -4.6875 C 2.789062 -4.644531 2.648438 -4.59375 2.546875 -4.53125 L 2.546875 -1.375 C 2.628906 -1.363281 2.734375 -1.351562 2.859375 -1.34375 C 2.992188 -1.332031 3.140625 -1.328125 3.296875 -1.328125 C 3.765625 -1.328125 4.117188 -1.488281 4.359375 -1.8125 C 4.597656 -2.132812 4.71875 -2.5625 4.71875 -3.09375 Z M 6.484375 -3.046875 C 6.484375 -2.566406 6.410156 -2.128906 6.265625 -1.734375 C 6.128906 -1.335938 5.925781 -1 5.65625 -0.71875 C 5.382812 -0.4375 5.050781 -0.21875 4.65625 -0.0625 C 4.257812 0.0820312 3.8125 0.15625 3.3125 0.15625 C 3.101562 0.15625 2.882812 0.144531 2.65625 0.125 C 2.425781 0.101562 2.203125 0.078125 1.984375 0.046875 C 1.765625 0.015625 1.550781 -0.0195312 1.34375 -0.0625 C 1.144531 -0.101562 0.96875 -0.148438 0.8125 -0.203125 L 0.8125 -8.734375 L 2.546875 -9.015625 L 2.546875 -5.96875 C 2.734375 -6.050781 2.929688 -6.113281 3.140625 -6.15625 C 3.347656 -6.207031 3.570312 -6.234375 3.8125 -6.234375 C 4.25 -6.234375 4.632812 -6.15625 4.96875 -6 C 5.300781 -5.851562 5.578125 -5.640625 5.796875 -5.359375 C 6.023438 -5.085938 6.195312 -4.753906 6.3125 -4.359375 C 6.425781 -3.960938 6.484375 -3.523438 6.484375 -3.046875 Z M 6.484375 -3.046875 "/></g></g></g><g fill="#000000" fill-opacity="1"><g transform="translate(80.882677, 17.545675)"><g><path d="M 0.515625 -3 C 0.515625 -3.539062 0.597656 -4.015625 0.765625 -4.421875 C 0.929688 -4.828125 1.148438 -5.164062 1.421875 -5.4375 C 1.691406 -5.707031 2.003906 -5.910156 2.359375 -6.046875 C 2.710938 -6.191406 3.078125 -6.265625 3.453125 -6.265625 C 4.316406 -6.265625 5 -6 5.5 -5.46875 C 6 -4.9375 6.25 -4.160156 6.25 -3.140625 C 6.25 -3.035156 6.242188 -2.921875 6.234375 -2.796875 C 6.234375 -2.679688 6.226562 -2.578125 6.21875 -2.484375 L 2.296875 -2.484375 C 2.335938 -2.128906 2.503906 -1.847656 2.796875 -1.640625 C 3.085938 -1.429688 3.484375 -1.328125 3.984375 -1.328125 C 4.296875 -1.328125 4.601562 -1.351562 4.90625 -1.40625 C 5.21875 -1.46875 5.472656 -1.539062 5.671875 -1.625 L 5.890625 -0.21875 C 5.804688 -0.175781 5.6875 -0.128906 5.53125 -0.078125 C 5.375 -0.0351562 5.195312 0 5 0.03125 C 4.8125 0.0703125 4.609375 0.101562 4.390625 0.125 C 4.179688 0.144531 3.96875 0.15625 3.75 0.15625 C 3.195312 0.15625 2.71875 0.078125 2.3125 -0.078125 C 1.90625 -0.242188 1.566406 -0.46875 1.296875 -0.75 C 1.035156 -1.03125 0.835938 -1.363281 0.703125 -1.75 C 0.578125 -2.132812 0.515625 -2.550781 0.515625 -3 Z M 4.578125 -3.671875 C 4.578125 -3.816406 4.554688 -3.957031 4.515625 -4.09375 C 4.472656 -4.238281 4.40625 -4.363281 4.3125 -4.46875 C 4.21875 -4.570312 4.101562 -4.660156 3.96875 -4.734375 C 3.832031 -4.804688 3.664062 -4.84375 3.46875 -4.84375 C 3.28125 -4.84375 3.113281 -4.804688 2.96875 -4.734375 C 2.832031 -4.671875 2.71875 -4.582031 2.625 -4.46875 C 2.53125 -4.363281 2.457031 -4.238281 2.40625 -4.09375 C 2.351562 -3.957031 2.316406 -3.816406 2.296875 -3.671875 Z M 4.578125 -3.671875 "/></g></g></g><g fill="#000000" fill-opacity="1"><g transform="translate(87.664631, 17.545675)"><g><path d="M 4.5 -4.578125 C 4.34375 -4.609375 4.160156 -4.644531 3.953125 -4.6875 C 3.742188 -4.738281 3.519531 -4.765625 3.28125 -4.765625 C 3.164062 -4.765625 3.03125 -4.753906 2.875 -4.734375 C 2.726562 -4.710938 2.617188 -4.691406 2.546875 -4.671875 L 2.546875 0 L 0.8125 0 L 0.8125 -5.78125 C 1.125 -5.882812 1.488281 -5.984375 1.90625 -6.078125 C 2.332031 -6.179688 2.800781 -6.234375 3.3125 -6.234375 C 3.40625 -6.234375 3.519531 -6.226562 3.65625 -6.21875 C 3.789062 -6.207031 3.921875 -6.191406 4.046875 -6.171875 C 4.179688 -6.148438 4.3125 -6.125 4.4375 -6.09375 C 4.570312 -6.070312 4.6875 -6.039062 4.78125 -6 Z M 4.5 -4.578125 "/></g></g></g><g fill="#000000" fill-opacity="1"><g transform="translate(92.565286, 17.545675)"><g/></g></g><g fill="#000000" fill-opacity="1"><g transform="translate(95.352391, 17.545675)"><g><path d="M 3.125 -1.375 C 3.375 -1.375 3.582031 -1.394531 3.75 -1.4375 C 3.914062 -1.488281 4.050781 -1.550781 4.15625 -1.625 C 4.257812 -1.695312 4.328125 -1.78125 4.359375 -1.875 C 4.398438 -1.976562 4.421875 -2.09375 4.421875 -2.21875 C 4.421875 -2.476562 4.296875 -2.695312 4.046875 -2.875 C 3.804688 -3.050781 3.382812 -3.238281 2.78125 -3.4375 C 2.507812 -3.53125 2.242188 -3.632812 1.984375 -3.75 C 1.722656 -3.875 1.488281 -4.023438 1.28125 -4.203125 C 1.070312 -4.390625 0.898438 -4.613281 0.765625 -4.875 C 0.628906 -5.132812 0.5625 -5.445312 0.5625 -5.8125 C 0.5625 -6.1875 0.628906 -6.519531 0.765625 -6.8125 C 0.910156 -7.113281 1.109375 -7.367188 1.359375 -7.578125 C 1.617188 -7.785156 1.929688 -7.945312 2.296875 -8.0625 C 2.660156 -8.175781 3.070312 -8.234375 3.53125 -8.234375 C 4.070312 -8.234375 4.539062 -8.171875 4.9375 -8.046875 C 5.332031 -7.929688 5.65625 -7.804688 5.90625 -7.671875 L 5.390625 -6.25 C 5.160156 -6.363281 4.90625 -6.460938 4.625 -6.546875 C 4.351562 -6.640625 4.023438 -6.6875 3.640625 -6.6875 C 3.210938 -6.6875 2.898438 -6.625 2.703125 -6.5 C 2.515625 -6.382812 2.421875 -6.203125 2.421875 -5.953125 C 2.421875 -5.804688 2.457031 -5.679688 2.53125 -5.578125 C 2.601562 -5.484375 2.703125 -5.394531 2.828125 -5.3125 C 2.953125 -5.226562 3.097656 -5.148438 3.265625 -5.078125 C 3.429688 -5.015625 3.613281 -4.953125 3.8125 -4.890625 C 4.238281 -4.734375 4.601562 -4.578125 4.90625 -4.421875 C 5.21875 -4.273438 5.472656 -4.097656 5.671875 -3.890625 C 5.878906 -3.691406 6.035156 -3.457031 6.140625 -3.1875 C 6.242188 -2.914062 6.296875 -2.585938 6.296875 -2.203125 C 6.296875 -1.453125 6.03125 -0.867188 5.5 -0.453125 C 4.976562 -0.046875 4.1875 0.15625 3.125 0.15625 C 2.769531 0.15625 2.445312 0.132812 2.15625 0.09375 C 1.875 0.0507812 1.617188 0 1.390625 -0.0625 C 1.171875 -0.125 0.984375 -0.1875 0.828125 -0.25 C 0.671875 -0.320312 0.535156 -0.390625 0.421875 -0.453125 L 0.9375 -1.890625 C 1.175781 -1.753906 1.472656 -1.632812 1.828125 -1.53125 C 2.179688 -1.425781 2.613281 -1.375 3.125 -1.375 Z M 3.125 -1.375 "/></g></g></g><g fill="#000000" fill-opacity="1"><g transform="translate(102.111109, 17.545675)"><g><path d="M 0.515625 -3 C 0.515625 -3.539062 0.597656 -4.015625 0.765625 -4.421875 C 0.929688 -4.828125 1.148438 -5.164062 1.421875 -5.4375 C 1.691406 -5.707031 2.003906 -5.910156 2.359375 -6.046875 C 2.710938 -6.191406 3.078125 -6.265625 3.453125 -6.265625 C 4.316406 -6.265625 5 -6 5.5 -5.46875 C 6 -4.9375 6.25 -4.160156 6.25 -3.140625 C 6.25 -3.035156 6.242188 -2.921875 6.234375 -2.796875 C 6.234375 -2.679688 6.226562 -2.578125 6.21875 -2.484375 L 2.296875 -2.484375 C 2.335938 -2.128906 2.503906 -1.847656 2.796875 -1.640625 C 3.085938 -1.429688 3.484375 -1.328125 3.984375 -1.328125 C 4.296875 -1.328125 4.601562 -1.351562 4.90625 -1.40625 C 5.21875 -1.46875 5.472656 -1.539062 5.671875 -1.625 L 5.890625 -0.21875 C 5.804688 -0.175781 5.6875 -0.128906 5.53125 -0.078125 C 5.375 -0.0351562 5.195312 0 5 0.03125 C 4.8125 0.0703125 4.609375 0.101562 4.390625 0.125 C 4.179688 0.144531 3.96875 0.15625 3.75 0.15625 C 3.195312 0.15625 2.71875 0.078125 2.3125 -0.078125 C 1.90625 -0.242188 1.566406 -0.46875 1.296875 -0.75 C 1.035156 -1.03125 0.835938 -1.363281 0.703125 -1.75 C 0.578125 -2.132812 0.515625 -2.550781 0.515625 -3 Z M 4.578125 -3.671875 C 4.578125 -3.816406 4.554688 -3.957031 4.515625 -4.09375 C 4.472656 -4.238281 4.40625 -4.363281 4.3125 -4.46875 C 4.21875 -4.570312 4.101562 -4.660156 3.96875 -4.734375 C 3.832031 -4.804688 3.664062 -4.84375 3.46875 -4.84375 C 3.28125 -4.84375 3.113281 -4.804688 2.96875 -4.734375 C 2.832031 -4.671875 2.71875 -4.582031 2.625 -4.46875 C 2.53125 -4.363281 2.457031 -4.238281 2.40625 -4.09375 C 2.351562 -3.957031 2.316406 -3.816406 2.296875 -3.671875 Z M 4.578125 -3.671875 "/></g></g></g><g fill="#000000" fill-opacity="1"><g transform="translate(108.893063, 17.545675)"><g><path d="M 0.515625 -3.046875 C 0.515625 -3.492188 0.585938 -3.910156 0.734375 -4.296875 C 0.878906 -4.691406 1.085938 -5.035156 1.359375 -5.328125 C 1.628906 -5.617188 1.957031 -5.847656 2.34375 -6.015625 C 2.726562 -6.179688 3.171875 -6.265625 3.671875 -6.265625 C 3.992188 -6.265625 4.289062 -6.234375 4.5625 -6.171875 C 4.832031 -6.117188 5.097656 -6.039062 5.359375 -5.9375 L 4.984375 -4.546875 C 4.828125 -4.609375 4.648438 -4.660156 4.453125 -4.703125 C 4.265625 -4.753906 4.050781 -4.78125 3.8125 -4.78125 C 3.300781 -4.78125 2.914062 -4.617188 2.65625 -4.296875 C 2.40625 -3.984375 2.28125 -3.566406 2.28125 -3.046875 C 2.28125 -2.503906 2.398438 -2.082031 2.640625 -1.78125 C 2.878906 -1.476562 3.289062 -1.328125 3.875 -1.328125 C 4.082031 -1.328125 4.304688 -1.34375 4.546875 -1.375 C 4.785156 -1.414062 5.007812 -1.476562 5.21875 -1.5625 L 5.453125 -0.15625 C 5.253906 -0.0625 5.003906 0.0078125 4.703125 0.0625 C 4.398438 0.125 4.066406 0.15625 3.703125 0.15625 C 3.148438 0.15625 2.671875 0.0703125 2.265625 -0.09375 C 1.859375 -0.257812 1.523438 -0.484375 1.265625 -0.765625 C 1.003906 -1.054688 0.8125 -1.394531 0.6875 -1.78125 C 0.570312 -2.175781 0.515625 -2.597656 0.515625 -3.046875 Z M 0.515625 -3.046875 "/></g></g></g><g fill="#000000" fill-opacity="1"><g transform="translate(114.699525, 17.545675)"><g><path d="M 6.03125 -0.203125 C 5.726562 -0.117188 5.34375 -0.0390625 4.875 0.03125 C 4.414062 0.101562 3.929688 0.140625 3.421875 0.140625 C 2.898438 0.140625 2.46875 0.0703125 2.125 -0.0625 C 1.78125 -0.207031 1.507812 -0.40625 1.3125 -0.65625 C 1.113281 -0.90625 0.96875 -1.203125 0.875 -1.546875 C 0.789062 -1.898438 0.75 -2.285156 0.75 -2.703125 L 0.75 -6.109375 L 2.484375 -6.109375 L 2.484375 -2.90625 C 2.484375 -2.351562 2.554688 -1.953125 2.703125 -1.703125 C 2.847656 -1.453125 3.125 -1.328125 3.53125 -1.328125 C 3.65625 -1.328125 3.785156 -1.332031 3.921875 -1.34375 C 4.066406 -1.363281 4.191406 -1.378906 4.296875 -1.390625 L 4.296875 -6.109375 L 6.03125 -6.109375 Z M 6.03125 -0.203125 "/></g></g></g><g fill="#000000" fill-opacity="1"><g transform="translate(121.539545, 17.545675)"><g><path d="M 4.5 -4.578125 C 4.34375 -4.609375 4.160156 -4.644531 3.953125 -4.6875 C 3.742188 -4.738281 3.519531 -4.765625 3.28125 -4.765625 C 3.164062 -4.765625 3.03125 -4.753906 2.875 -4.734375 C 2.726562 -4.710938 2.617188 -4.691406 2.546875 -4.671875 L 2.546875 0 L 0.8125 0 L 0.8125 -5.78125 C 1.125 -5.882812 1.488281 -5.984375 1.90625 -6.078125 C 2.332031 -6.179688 2.800781 -6.234375 3.3125 -6.234375 C 3.40625 -6.234375 3.519531 -6.226562 3.65625 -6.21875 C 3.789062 -6.207031 3.921875 -6.191406 4.046875 -6.171875 C 4.179688 -6.148438 4.3125 -6.125 4.4375 -6.09375 C 4.570312 -6.070312 4.6875 -6.039062 4.78125 -6 Z M 4.5 -4.578125 "/></g></g></g><g fill="#000000" fill-opacity="1"><g transform="translate(126.4402, 17.545675)"><g><path d="M 2.546875 0 L 0.8125 0 L 0.8125 -6.109375 L 2.546875 -6.109375 Z M 2.703125 -7.875 C 2.703125 -7.550781 2.597656 -7.296875 2.390625 -7.109375 C 2.191406 -6.929688 1.953125 -6.84375 1.671875 -6.84375 C 1.390625 -6.84375 1.144531 -6.929688 0.9375 -7.109375 C 0.738281 -7.296875 0.640625 -7.550781 0.640625 -7.875 C 0.640625 -8.1875 0.738281 -8.429688 0.9375 -8.609375 C 1.144531 -8.796875 1.390625 -8.890625 1.671875 -8.890625 C 1.953125 -8.890625 2.191406 -8.796875 2.390625 -8.609375 C 2.597656 -8.429688 2.703125 -8.1875 2.703125 -7.875 Z M 2.703125 -7.875 "/></g></g></g><g fill="#000000" fill-opacity="1"><g transform="translate(129.796335, 17.545675)"><g><path d="M 0.75 -7.625 L 2.484375 -7.90625 L 2.484375 -6.109375 L 4.5625 -6.109375 L 4.5625 -4.671875 L 2.484375 -4.671875 L 2.484375 -2.515625 C 2.484375 -2.148438 2.546875 -1.859375 2.671875 -1.640625 C 2.804688 -1.429688 3.066406 -1.328125 3.453125 -1.328125 C 3.640625 -1.328125 3.828125 -1.34375 4.015625 -1.375 C 4.210938 -1.40625 4.394531 -1.453125 4.5625 -1.515625 L 4.8125 -0.171875 C 4.601562 -0.0859375 4.367188 -0.015625 4.109375 0.046875 C 3.859375 0.109375 3.546875 0.140625 3.171875 0.140625 C 2.703125 0.140625 2.3125 0.078125 2 -0.046875 C 1.6875 -0.179688 1.4375 -0.359375 1.25 -0.578125 C 1.0625 -0.804688 0.929688 -1.082031 0.859375 -1.40625 C 0.785156 -1.738281 0.75 -2.101562 0.75 -2.5 Z M 0.75 -7.625 "/></g></g></g><g fill="#000000" fill-opacity="1"><g transform="translate(134.952478, 17.545675)"><g><path d="M 6.234375 -6.109375 C 5.890625 -4.929688 5.523438 -3.828125 5.140625 -2.796875 C 4.765625 -1.765625 4.351562 -0.765625 3.90625 0.203125 C 3.738281 0.546875 3.570312 0.835938 3.40625 1.078125 C 3.25 1.328125 3.070312 1.53125 2.875 1.6875 C 2.6875 1.84375 2.46875 1.957031 2.21875 2.03125 C 1.976562 2.101562 1.695312 2.140625 1.375 2.140625 C 1.101562 2.140625 0.851562 2.113281 0.625 2.0625 C 0.394531 2.019531 0.207031 1.96875 0.0625 1.90625 L 0.359375 0.515625 C 0.535156 0.578125 0.691406 0.617188 0.828125 0.640625 C 0.972656 0.671875 1.125 0.6875 1.28125 0.6875 C 1.582031 0.6875 1.816406 0.601562 1.984375 0.4375 C 2.148438 0.269531 2.296875 0.0390625 2.421875 -0.25 C 2.023438 -1.03125 1.628906 -1.898438 1.234375 -2.859375 C 0.835938 -3.828125 0.460938 -4.910156 0.109375 -6.109375 L 1.953125 -6.109375 C 2.023438 -5.804688 2.113281 -5.476562 2.21875 -5.125 C 2.320312 -4.769531 2.429688 -4.410156 2.546875 -4.046875 C 2.671875 -3.691406 2.789062 -3.34375 2.90625 -3 C 3.03125 -2.664062 3.144531 -2.359375 3.25 -2.078125 C 3.351562 -2.359375 3.457031 -2.664062 3.5625 -3 C 3.675781 -3.34375 3.785156 -3.691406 3.890625 -4.046875 C 3.992188 -4.410156 4.09375 -4.769531 4.1875 -5.125 C 4.28125 -5.476562 4.367188 -5.804688 4.453125 -6.109375 Z M 6.234375 -6.109375 "/></g></g></g></svg>