<svg xmlns="http://www.w3.org/2000/svg" xmlns:xlink="http://www.w3.org/1999/xlink" width="200" zoomAndPan="magnify" viewBox="0 0 150 30.000001" height="40" preserveAspectRatio="xMidYMid meet" version="1.0"><defs><g/><clipPath id="id1"><path d="M 2.417969 0 L 147.578125 0 L 147.578125 29.03125 L 2.417969 29.03125 Z M 2.417969 0 " clip-rule="nonzero"/></clipPath></defs><g clip-path="url(#id1)"><path fill="#ffffff" d="M 135.226562 0 L 2.417969 0 L 2.417969 29.03125 L 147.582031 29.03125 L 147.582031 0 L 135.226562 0 " fill-opacity="1" fill-rule="nonzero"/></g><path fill="#302e2e" d="M 132.589844 4.132812 L 6.550781 4.132812 L 6.550781 24.898438 L 143.449219 24.898438 L 143.449219 4.132812 L 132.589844 4.132812 M 143.195312 13.914062 L 143.195312 24.648438 L 6.804688 24.648438 L 6.804688 4.386719 L 143.195312 4.386719 L 143.195312 13.914062 M 132.589844 1.941406 L 4.359375 1.941406 L 4.359375 27.09375 L 145.640625 27.09375 L 145.640625 1.941406 L 132.589844 1.941406 M 144.714844 13.832031 L 144.714844 26.164062 L 5.285156 26.164062 L 5.285156 2.867188 L 144.714844 2.867188 L 144.714844 13.832031 " fill-opacity="1" fill-rule="nonzero"/><g fill="#000000" fill-opacity="1"><g transform="translate(8.933796, 19.233873)"><g><path d="M 6.453125 -8.984375 L 8.484375 -8.984375 L 8.484375 0 L 6.453125 0 L 6.453125 -3.8125 L 3.0625 -3.8125 L 3.0625 0 L 1.03125 0 L 1.03125 -8.984375 L 3.0625 -8.984375 L 3.0625 -5.546875 L 6.453125 -5.546875 Z M 6.453125 -8.984375 "/></g></g></g><g fill="#000000" fill-opacity="1"><g transform="translate(18.448277, 19.233873)"><g><path d="M 2.84375 0 L 0.90625 0 L 0.90625 -6.828125 L 2.84375 -6.828125 Z M 3.015625 -8.796875 C 3.015625 -8.441406 2.898438 -8.160156 2.671875 -7.953125 C 2.441406 -7.753906 2.175781 -7.65625 1.875 -7.65625 C 1.5625 -7.65625 1.289062 -7.753906 1.0625 -7.953125 C 0.832031 -8.160156 0.71875 -8.441406 0.71875 -8.796875 C 0.71875 -9.148438 0.832031 -9.425781 1.0625 -9.625 C 1.289062 -9.832031 1.5625 -9.9375 1.875 -9.9375 C 2.175781 -9.9375 2.441406 -9.832031 2.671875 -9.625 C 2.898438 -9.425781 3.015625 -9.148438 3.015625 -8.796875 Z M 3.015625 -8.796875 "/></g></g></g><g fill="#000000" fill-opacity="1"><g transform="translate(22.194438, 19.233873)"><g><path d="M 5.015625 -5.109375 C 4.847656 -5.148438 4.644531 -5.191406 4.40625 -5.234375 C 4.175781 -5.285156 3.925781 -5.3125 3.65625 -5.3125 C 3.53125 -5.3125 3.382812 -5.300781 3.21875 -5.28125 C 3.050781 -5.257812 2.925781 -5.238281 2.84375 -5.21875 L 2.84375 0 L 0.90625 0 L 0.90625 -6.453125 C 1.25 -6.578125 1.65625 -6.691406 2.125 -6.796875 C 2.601562 -6.910156 3.128906 -6.96875 3.703125 -6.96875 C 3.804688 -6.96875 3.929688 -6.957031 4.078125 -6.9375 C 4.234375 -6.925781 4.382812 -6.910156 4.53125 -6.890625 C 4.675781 -6.867188 4.820312 -6.84375 4.96875 -6.8125 C 5.113281 -6.78125 5.238281 -6.742188 5.34375 -6.703125 Z M 5.015625 -5.109375 "/></g></g></g><g fill="#000000" fill-opacity="1"><g transform="translate(27.664621, 19.233873)"><g><path d="M 0.578125 -3.359375 C 0.578125 -3.960938 0.671875 -4.488281 0.859375 -4.9375 C 1.046875 -5.394531 1.289062 -5.773438 1.59375 -6.078125 C 1.894531 -6.378906 2.242188 -6.609375 2.640625 -6.765625 C 3.035156 -6.921875 3.441406 -7 3.859375 -7 C 4.816406 -7 5.578125 -6.703125 6.140625 -6.109375 C 6.703125 -5.515625 6.984375 -4.644531 6.984375 -3.5 C 6.984375 -3.382812 6.976562 -3.257812 6.96875 -3.125 C 6.96875 -3 6.960938 -2.882812 6.953125 -2.78125 L 2.5625 -2.78125 C 2.601562 -2.375 2.789062 -2.054688 3.125 -1.828125 C 3.457031 -1.597656 3.898438 -1.484375 4.453125 -1.484375 C 4.804688 -1.484375 5.148438 -1.515625 5.484375 -1.578125 C 5.828125 -1.640625 6.109375 -1.71875 6.328125 -1.8125 L 6.59375 -0.25 C 6.488281 -0.195312 6.347656 -0.144531 6.171875 -0.09375 C 5.992188 -0.0390625 5.800781 0.00390625 5.59375 0.046875 C 5.382812 0.0859375 5.15625 0.117188 4.90625 0.140625 C 4.664062 0.171875 4.425781 0.1875 4.1875 0.1875 C 3.570312 0.1875 3.035156 0.0976562 2.578125 -0.078125 C 2.128906 -0.265625 1.753906 -0.515625 1.453125 -0.828125 C 1.160156 -1.148438 0.941406 -1.523438 0.796875 -1.953125 C 0.648438 -2.390625 0.578125 -2.859375 0.578125 -3.359375 Z M 5.125 -4.09375 C 5.113281 -4.257812 5.082031 -4.421875 5.03125 -4.578125 C 4.988281 -4.734375 4.914062 -4.867188 4.8125 -4.984375 C 4.71875 -5.109375 4.59375 -5.207031 4.4375 -5.28125 C 4.289062 -5.363281 4.101562 -5.40625 3.875 -5.40625 C 3.65625 -5.40625 3.46875 -5.367188 3.3125 -5.296875 C 3.164062 -5.222656 3.039062 -5.125 2.9375 -5 C 2.832031 -4.882812 2.75 -4.742188 2.6875 -4.578125 C 2.632812 -4.421875 2.59375 -4.257812 2.5625 -4.09375 Z M 5.125 -4.09375 "/></g></g></g><g fill="#000000" fill-opacity="1"><g transform="translate(35.234733, 19.233873)"><g/></g></g><g fill="#000000" fill-opacity="1"><g transform="translate(38.345735, 19.233873)"><g><path d="M 4.546875 0.1875 C 3.921875 0.1875 3.378906 0.0976562 2.921875 -0.078125 C 2.460938 -0.253906 2.082031 -0.5 1.78125 -0.8125 C 1.476562 -1.132812 1.253906 -1.515625 1.109375 -1.953125 C 0.972656 -2.390625 0.90625 -2.867188 0.90625 -3.390625 L 0.90625 -8.984375 L 2.9375 -8.984375 L 2.9375 -3.5625 C 2.9375 -3.195312 2.972656 -2.882812 3.046875 -2.625 C 3.128906 -2.375 3.242188 -2.171875 3.390625 -2.015625 C 3.535156 -1.859375 3.707031 -1.742188 3.90625 -1.671875 C 4.113281 -1.597656 4.335938 -1.5625 4.578125 -1.5625 C 5.066406 -1.5625 5.460938 -1.710938 5.765625 -2.015625 C 6.078125 -2.328125 6.234375 -2.84375 6.234375 -3.5625 L 6.234375 -8.984375 L 8.265625 -8.984375 L 8.265625 -3.390625 C 8.265625 -2.867188 8.1875 -2.382812 8.03125 -1.9375 C 7.882812 -1.5 7.660156 -1.125 7.359375 -0.8125 C 7.054688 -0.5 6.671875 -0.253906 6.203125 -0.078125 C 5.742188 0.0976562 5.191406 0.1875 4.546875 0.1875 Z M 4.546875 0.1875 "/></g></g></g><g fill="#000000" fill-opacity="1"><g transform="translate(47.510227, 19.233873)"><g><path d="M 2.859375 -1.390625 C 3.210938 -1.390625 3.460938 -1.421875 3.609375 -1.484375 C 3.765625 -1.554688 3.84375 -1.691406 3.84375 -1.890625 C 3.84375 -2.046875 3.742188 -2.179688 3.546875 -2.296875 C 3.359375 -2.421875 3.070312 -2.554688 2.6875 -2.703125 C 2.382812 -2.804688 2.109375 -2.921875 1.859375 -3.046875 C 1.609375 -3.171875 1.394531 -3.316406 1.21875 -3.484375 C 1.050781 -3.648438 0.921875 -3.847656 0.828125 -4.078125 C 0.734375 -4.316406 0.6875 -4.597656 0.6875 -4.921875 C 0.6875 -5.566406 0.921875 -6.070312 1.390625 -6.4375 C 1.867188 -6.8125 2.523438 -7 3.359375 -7 C 3.773438 -7 4.171875 -6.960938 4.546875 -6.890625 C 4.929688 -6.816406 5.234375 -6.738281 5.453125 -6.65625 L 5.125 -5.15625 C 4.894531 -5.226562 4.648438 -5.296875 4.390625 -5.359375 C 4.128906 -5.421875 3.832031 -5.453125 3.5 -5.453125 C 2.894531 -5.453125 2.59375 -5.28125 2.59375 -4.9375 C 2.59375 -4.863281 2.601562 -4.796875 2.625 -4.734375 C 2.65625 -4.671875 2.707031 -4.609375 2.78125 -4.546875 C 2.863281 -4.492188 2.972656 -4.4375 3.109375 -4.375 C 3.242188 -4.3125 3.414062 -4.238281 3.625 -4.15625 C 4.039062 -4 4.382812 -3.84375 4.65625 -3.6875 C 4.9375 -3.539062 5.15625 -3.378906 5.3125 -3.203125 C 5.476562 -3.023438 5.59375 -2.828125 5.65625 -2.609375 C 5.726562 -2.398438 5.765625 -2.15625 5.765625 -1.875 C 5.765625 -1.195312 5.507812 -0.679688 5 -0.328125 C 4.488281 0.015625 3.773438 0.1875 2.859375 0.1875 C 2.253906 0.1875 1.75 0.132812 1.34375 0.03125 C 0.9375 -0.0703125 0.65625 -0.160156 0.5 -0.234375 L 0.828125 -1.796875 C 1.160156 -1.671875 1.5 -1.570312 1.84375 -1.5 C 2.1875 -1.425781 2.523438 -1.390625 2.859375 -1.390625 Z M 2.859375 -1.390625 "/></g></g></g><g fill="#000000" fill-opacity="1"><g transform="translate(53.797042, 19.233873)"><g/></g></g><g fill="#000000" fill-opacity="1"><g transform="translate(56.908045, 19.233873)"><g><path d="M 7.28125 -3.421875 C 7.28125 -2.890625 7.203125 -2.398438 7.046875 -1.953125 C 6.898438 -1.503906 6.675781 -1.125 6.375 -0.8125 C 6.082031 -0.5 5.726562 -0.253906 5.3125 -0.078125 C 4.90625 0.0976562 4.445312 0.1875 3.9375 0.1875 C 3.4375 0.1875 2.976562 0.0976562 2.5625 -0.078125 C 2.15625 -0.253906 1.804688 -0.5 1.515625 -0.8125 C 1.222656 -1.125 0.992188 -1.503906 0.828125 -1.953125 C 0.660156 -2.398438 0.578125 -2.890625 0.578125 -3.421875 C 0.578125 -3.960938 0.660156 -4.453125 0.828125 -4.890625 C 1.003906 -5.328125 1.238281 -5.703125 1.53125 -6.015625 C 1.832031 -6.328125 2.1875 -6.566406 2.59375 -6.734375 C 3.007812 -6.910156 3.457031 -7 3.9375 -7 C 4.4375 -7 4.890625 -6.910156 5.296875 -6.734375 C 5.703125 -6.566406 6.050781 -6.328125 6.34375 -6.015625 C 6.644531 -5.703125 6.875 -5.328125 7.03125 -4.890625 C 7.195312 -4.453125 7.28125 -3.960938 7.28125 -3.421875 Z M 5.3125 -3.421875 C 5.3125 -4.015625 5.191406 -4.484375 4.953125 -4.828125 C 4.722656 -5.171875 4.382812 -5.34375 3.9375 -5.34375 C 3.5 -5.34375 3.160156 -5.171875 2.921875 -4.828125 C 2.679688 -4.484375 2.5625 -4.015625 2.5625 -3.421875 C 2.5625 -2.828125 2.679688 -2.351562 2.921875 -2 C 3.160156 -1.65625 3.5 -1.484375 3.9375 -1.484375 C 4.382812 -1.484375 4.722656 -1.65625 4.953125 -2 C 5.191406 -2.351562 5.3125 -2.828125 5.3125 -3.421875 Z M 5.3125 -3.421875 "/></g></g></g><g fill="#000000" fill-opacity="1"><g transform="translate(64.776293, 19.233873)"><g><path d="M 0.90625 -6.59375 C 1.238281 -6.6875 1.660156 -6.773438 2.171875 -6.859375 C 2.691406 -6.941406 3.238281 -6.984375 3.8125 -6.984375 C 4.394531 -6.984375 4.878906 -6.90625 5.265625 -6.75 C 5.648438 -6.59375 5.953125 -6.375 6.171875 -6.09375 C 6.398438 -5.820312 6.5625 -5.492188 6.65625 -5.109375 C 6.75 -4.734375 6.796875 -4.316406 6.796875 -3.859375 L 6.796875 0 L 4.859375 0 L 4.859375 -3.625 C 4.859375 -4.238281 4.773438 -4.675781 4.609375 -4.9375 C 4.453125 -5.195312 4.148438 -5.328125 3.703125 -5.328125 C 3.554688 -5.328125 3.40625 -5.320312 3.25 -5.3125 C 3.09375 -5.300781 2.957031 -5.285156 2.84375 -5.265625 L 2.84375 0 L 0.90625 0 Z M 0.90625 -6.59375 "/></g></g></g><g fill="#000000" fill-opacity="1"><g transform="translate(72.411215, 19.233873)"><g/></g></g><g fill="#000000" fill-opacity="1"><g transform="translate(75.522218, 19.233873)"><g><path d="M 1.03125 0 L 1.03125 -8.984375 L 7.0625 -8.984375 L 7.0625 -7.28125 L 3.0625 -7.28125 L 3.0625 -5.40625 L 6.609375 -5.40625 L 6.609375 -3.703125 L 3.0625 -3.703125 L 3.0625 0 Z M 1.03125 0 "/></g></g></g><g fill="#000000" fill-opacity="1"><g transform="translate(82.962697, 19.233873)"><g><path d="M 2.84375 0 L 0.90625 0 L 0.90625 -6.828125 L 2.84375 -6.828125 Z M 3.015625 -8.796875 C 3.015625 -8.441406 2.898438 -8.160156 2.671875 -7.953125 C 2.441406 -7.753906 2.175781 -7.65625 1.875 -7.65625 C 1.5625 -7.65625 1.289062 -7.753906 1.0625 -7.953125 C 0.832031 -8.160156 0.71875 -8.441406 0.71875 -8.796875 C 0.71875 -9.148438 0.832031 -9.425781 1.0625 -9.625 C 1.289062 -9.832031 1.5625 -9.9375 1.875 -9.9375 C 2.175781 -9.9375 2.441406 -9.832031 2.671875 -9.625 C 2.898438 -9.425781 3.015625 -9.148438 3.015625 -8.796875 Z M 3.015625 -8.796875 "/></g></g></g><g fill="#000000" fill-opacity="1"><g transform="translate(86.708858, 19.233873)"><g><path d="M 2.765625 0 C 2.316406 -0.863281 1.863281 -1.875 1.40625 -3.03125 C 0.957031 -4.1875 0.53125 -5.453125 0.125 -6.828125 L 2.171875 -6.828125 C 2.265625 -6.484375 2.367188 -6.113281 2.484375 -5.71875 C 2.597656 -5.332031 2.71875 -4.9375 2.84375 -4.53125 C 2.96875 -4.125 3.09375 -3.726562 3.21875 -3.34375 C 3.34375 -2.96875 3.46875 -2.628906 3.59375 -2.328125 C 3.707031 -2.628906 3.828125 -2.96875 3.953125 -3.34375 C 4.085938 -3.726562 4.21875 -4.125 4.34375 -4.53125 C 4.46875 -4.9375 4.585938 -5.332031 4.703125 -5.71875 C 4.816406 -6.113281 4.914062 -6.484375 5 -6.828125 L 7 -6.828125 C 6.59375 -5.453125 6.160156 -4.1875 5.703125 -3.03125 C 5.253906 -1.875 4.8125 -0.863281 4.375 0 Z M 2.765625 0 "/></g></g></g><g fill="#000000" fill-opacity="1"><g transform="translate(93.838243, 19.233873)"><g><path d="M 0.578125 -3.359375 C 0.578125 -3.960938 0.671875 -4.488281 0.859375 -4.9375 C 1.046875 -5.394531 1.289062 -5.773438 1.59375 -6.078125 C 1.894531 -6.378906 2.242188 -6.609375 2.640625 -6.765625 C 3.035156 -6.921875 3.441406 -7 3.859375 -7 C 4.816406 -7 5.578125 -6.703125 6.140625 -6.109375 C 6.703125 -5.515625 6.984375 -4.644531 6.984375 -3.5 C 6.984375 -3.382812 6.976562 -3.257812 6.96875 -3.125 C 6.96875 -3 6.960938 -2.882812 6.953125 -2.78125 L 2.5625 -2.78125 C 2.601562 -2.375 2.789062 -2.054688 3.125 -1.828125 C 3.457031 -1.597656 3.898438 -1.484375 4.453125 -1.484375 C 4.804688 -1.484375 5.148438 -1.515625 5.484375 -1.578125 C 5.828125 -1.640625 6.109375 -1.71875 6.328125 -1.8125 L 6.59375 -0.25 C 6.488281 -0.195312 6.347656 -0.144531 6.171875 -0.09375 C 5.992188 -0.0390625 5.800781 0.00390625 5.59375 0.046875 C 5.382812 0.0859375 5.15625 0.117188 4.90625 0.140625 C 4.664062 0.171875 4.425781 0.1875 4.1875 0.1875 C 3.570312 0.1875 3.035156 0.0976562 2.578125 -0.078125 C 2.128906 -0.265625 1.753906 -0.515625 1.453125 -0.828125 C 1.160156 -1.148438 0.941406 -1.523438 0.796875 -1.953125 C 0.648438 -2.390625 0.578125 -2.859375 0.578125 -3.359375 Z M 5.125 -4.09375 C 5.113281 -4.257812 5.082031 -4.421875 5.03125 -4.578125 C 4.988281 -4.734375 4.914062 -4.867188 4.8125 -4.984375 C 4.71875 -5.109375 4.59375 -5.207031 4.4375 -5.28125 C 4.289062 -5.363281 4.101562 -5.40625 3.875 -5.40625 C 3.65625 -5.40625 3.46875 -5.367188 3.3125 -5.296875 C 3.164062 -5.222656 3.039062 -5.125 2.9375 -5 C 2.832031 -4.882812 2.75 -4.742188 2.6875 -4.578125 C 2.632812 -4.421875 2.59375 -4.257812 2.5625 -4.09375 Z M 5.125 -4.09375 "/></g></g></g><g fill="#000000" fill-opacity="1"><g transform="translate(101.408355, 19.233873)"><g><path d="M 5.015625 -5.109375 C 4.847656 -5.148438 4.644531 -5.191406 4.40625 -5.234375 C 4.175781 -5.285156 3.925781 -5.3125 3.65625 -5.3125 C 3.53125 -5.3125 3.382812 -5.300781 3.21875 -5.28125 C 3.050781 -5.257812 2.925781 -5.238281 2.84375 -5.21875 L 2.84375 0 L 0.90625 0 L 0.90625 -6.453125 C 1.25 -6.578125 1.65625 -6.691406 2.125 -6.796875 C 2.601562 -6.910156 3.128906 -6.96875 3.703125 -6.96875 C 3.804688 -6.96875 3.929688 -6.957031 4.078125 -6.9375 C 4.234375 -6.925781 4.382812 -6.910156 4.53125 -6.890625 C 4.675781 -6.867188 4.820312 -6.84375 4.96875 -6.8125 C 5.113281 -6.78125 5.238281 -6.742188 5.34375 -6.703125 Z M 5.015625 -5.109375 "/></g></g></g><g fill="#000000" fill-opacity="1"><g transform="translate(106.878538, 19.233873)"><g><path d="M 5.015625 -5.109375 C 4.847656 -5.148438 4.644531 -5.191406 4.40625 -5.234375 C 4.175781 -5.285156 3.925781 -5.3125 3.65625 -5.3125 C 3.53125 -5.3125 3.382812 -5.300781 3.21875 -5.28125 C 3.050781 -5.257812 2.925781 -5.238281 2.84375 -5.21875 L 2.84375 0 L 0.90625 0 L 0.90625 -6.453125 C 1.25 -6.578125 1.65625 -6.691406 2.125 -6.796875 C 2.601562 -6.910156 3.128906 -6.96875 3.703125 -6.96875 C 3.804688 -6.96875 3.929688 -6.957031 4.078125 -6.9375 C 4.234375 -6.925781 4.382812 -6.910156 4.53125 -6.890625 C 4.675781 -6.867188 4.820312 -6.84375 4.96875 -6.8125 C 5.113281 -6.78125 5.238281 -6.742188 5.34375 -6.703125 Z M 5.015625 -5.109375 "/></g></g></g><g fill="#000000" fill-opacity="1"><g transform="translate(112.348722, 19.233873)"><g><path d="M 2.796875 -1.03125 C 2.796875 -0.632812 2.671875 -0.332031 2.421875 -0.125 C 2.179688 0.0703125 1.90625 0.171875 1.59375 0.171875 C 1.28125 0.171875 1 0.0703125 0.75 -0.125 C 0.507812 -0.332031 0.390625 -0.632812 0.390625 -1.03125 C 0.390625 -1.414062 0.507812 -1.707031 0.75 -1.90625 C 1 -2.113281 1.28125 -2.21875 1.59375 -2.21875 C 1.90625 -2.21875 2.179688 -2.113281 2.421875 -1.90625 C 2.671875 -1.707031 2.796875 -1.414062 2.796875 -1.03125 Z M 2.796875 -1.03125 "/></g></g></g><g fill="#000000" fill-opacity="1"><g transform="translate(115.537503, 19.233873)"><g><path d="M 0.578125 -3.40625 C 0.578125 -3.90625 0.65625 -4.367188 0.8125 -4.796875 C 0.976562 -5.234375 1.210938 -5.613281 1.515625 -5.9375 C 1.816406 -6.269531 2.179688 -6.53125 2.609375 -6.71875 C 3.046875 -6.90625 3.539062 -7 4.09375 -7 C 4.457031 -7 4.789062 -6.96875 5.09375 -6.90625 C 5.394531 -6.84375 5.691406 -6.75 5.984375 -6.625 L 5.578125 -5.078125 C 5.390625 -5.148438 5.1875 -5.210938 4.96875 -5.265625 C 4.757812 -5.316406 4.519531 -5.34375 4.25 -5.34375 C 3.675781 -5.34375 3.25 -5.164062 2.96875 -4.8125 C 2.695312 -4.457031 2.5625 -3.988281 2.5625 -3.40625 C 2.5625 -2.789062 2.691406 -2.316406 2.953125 -1.984375 C 3.210938 -1.648438 3.671875 -1.484375 4.328125 -1.484375 C 4.566406 -1.484375 4.816406 -1.503906 5.078125 -1.546875 C 5.347656 -1.585938 5.597656 -1.65625 5.828125 -1.75 L 6.09375 -0.171875 C 5.875 -0.078125 5.59375 0.00390625 5.25 0.078125 C 4.914062 0.148438 4.546875 0.1875 4.140625 0.1875 C 3.515625 0.1875 2.976562 0.09375 2.53125 -0.09375 C 2.082031 -0.28125 1.710938 -0.53125 1.421875 -0.84375 C 1.128906 -1.164062 0.914062 -1.546875 0.78125 -1.984375 C 0.644531 -2.421875 0.578125 -2.894531 0.578125 -3.40625 Z M 0.578125 -3.40625 "/></g></g></g><g fill="#000000" fill-opacity="1"><g transform="translate(122.018761, 19.233873)"><g><path d="M 7.28125 -3.421875 C 7.28125 -2.890625 7.203125 -2.398438 7.046875 -1.953125 C 6.898438 -1.503906 6.675781 -1.125 6.375 -0.8125 C 6.082031 -0.5 5.726562 -0.253906 5.3125 -0.078125 C 4.90625 0.0976562 4.445312 0.1875 3.9375 0.1875 C 3.4375 0.1875 2.976562 0.0976562 2.5625 -0.078125 C 2.15625 -0.253906 1.804688 -0.5 1.515625 -0.8125 C 1.222656 -1.125 0.992188 -1.503906 0.828125 -1.953125 C 0.660156 -2.398438 0.578125 -2.890625 0.578125 -3.421875 C 0.578125 -3.960938 0.660156 -4.453125 0.828125 -4.890625 C 1.003906 -5.328125 1.238281 -5.703125 1.53125 -6.015625 C 1.832031 -6.328125 2.1875 -6.566406 2.59375 -6.734375 C 3.007812 -6.910156 3.457031 -7 3.9375 -7 C 4.4375 -7 4.890625 -6.910156 5.296875 -6.734375 C 5.703125 -6.566406 6.050781 -6.328125 6.34375 -6.015625 C 6.644531 -5.703125 6.875 -5.328125 7.03125 -4.890625 C 7.195312 -4.453125 7.28125 -3.960938 7.28125 -3.421875 Z M 5.3125 -3.421875 C 5.3125 -4.015625 5.191406 -4.484375 4.953125 -4.828125 C 4.722656 -5.171875 4.382812 -5.34375 3.9375 -5.34375 C 3.5 -5.34375 3.160156 -5.171875 2.921875 -4.828125 C 2.679688 -4.484375 2.5625 -4.015625 2.5625 -3.421875 C 2.5625 -2.828125 2.679688 -2.351562 2.921875 -2 C 3.160156 -1.65625 3.5 -1.484375 3.9375 -1.484375 C 4.382812 -1.484375 4.722656 -1.65625 4.953125 -2 C 5.191406 -2.351562 5.3125 -2.828125 5.3125 -3.421875 Z M 5.3125 -3.421875 "/></g></g></g><g fill="#000000" fill-opacity="1"><g transform="translate(129.88701, 19.233873)"><g><path d="M 4.65625 -3.625 C 4.65625 -4.238281 4.570312 -4.675781 4.40625 -4.9375 C 4.25 -5.195312 3.976562 -5.328125 3.59375 -5.328125 C 3.46875 -5.328125 3.335938 -5.320312 3.203125 -5.3125 C 3.078125 -5.300781 2.957031 -5.285156 2.84375 -5.265625 L 2.84375 0 L 0.90625 0 L 0.90625 -6.59375 C 1.070312 -6.632812 1.265625 -6.675781 1.484375 -6.71875 C 1.703125 -6.769531 1.9375 -6.8125 2.1875 -6.84375 C 2.4375 -6.882812 2.6875 -6.914062 2.9375 -6.9375 C 3.195312 -6.96875 3.453125 -6.984375 3.703125 -6.984375 C 4.203125 -6.984375 4.601562 -6.914062 4.90625 -6.78125 C 5.21875 -6.65625 5.472656 -6.507812 5.671875 -6.34375 C 5.941406 -6.539062 6.253906 -6.695312 6.609375 -6.8125 C 6.972656 -6.925781 7.304688 -6.984375 7.609375 -6.984375 C 8.160156 -6.984375 8.609375 -6.90625 8.953125 -6.75 C 9.304688 -6.59375 9.585938 -6.375 9.796875 -6.09375 C 10.003906 -5.820312 10.144531 -5.492188 10.21875 -5.109375 C 10.300781 -4.734375 10.34375 -4.316406 10.34375 -3.859375 L 10.34375 0 L 8.40625 0 L 8.40625 -3.625 C 8.40625 -4.238281 8.320312 -4.675781 8.15625 -4.9375 C 8 -5.195312 7.726562 -5.328125 7.34375 -5.328125 C 7.238281 -5.328125 7.09375 -5.300781 6.90625 -5.25 C 6.71875 -5.195312 6.566406 -5.132812 6.453125 -5.0625 C 6.503906 -4.863281 6.539062 -4.648438 6.5625 -4.421875 C 6.582031 -4.203125 6.59375 -3.96875 6.59375 -3.71875 L 6.59375 0 L 4.65625 0 Z M 4.65625 -3.625 "/></g></g></g></svg>