<svg xmlns="http://www.w3.org/2000/svg" xmlns:xlink="http://www.w3.org/1999/xlink" width="200" zoomAndPan="magnify" viewBox="0 0 150 149.999998" height="200" preserveAspectRatio="xMidYMid meet" version="1.0"><defs><clipPath id="431141de24"><path d="M 19.5 0 L 130.5 0 L 130.5 150 L 19.5 150 Z M 19.5 0 " clip-rule="nonzero"/></clipPath></defs><g clip-path="url(#431141de24)"><path fill="#000000" d="M 57.066406 41.003906 C 58.429688 42.210938 59.636719 43.164062 60.707031 44.246094 C 64.265625 47.867188 67.96875 51.363281 71.234375 55.238281 C 74.757812 59.417969 73.804688 65.421875 69.722656 69.273438 C 68.710938 70.234375 68.394531 71.929688 67.6875 73.453125 C 66.054688 74.109375 65.335938 72.550781 64.425781 71.589844 C 56.125 62.851562 46.332031 56.066406 35.9375 50.179688 C 31.964844 47.925781 27.554688 46.414062 23.289062 44.710938 C 19.9375 43.371094 19.464844 43.199219 19.757812 39.542969 C 20.28125 33.023438 22.496094 27.347656 28.101562 23.242188 C 37.835938 16.089844 47.171875 8.375 58.101562 3.015625 C 59.878906 2.148438 61.769531 1.503906 64.691406 0.308594 C 63.730469 5.660156 63.765625 10.058594 59.511719 12.882812 C 56.90625 14.613281 54.335938 16.378906 50.777344 18.769531 C 54.519531 19.378906 57.101562 19.757812 59.660156 20.21875 C 78.949219 23.714844 96.347656 31.476562 109.605469 46.039062 C 121.679688 59.28125 130.023438 74.839844 130.257812 93.496094 C 130.4375 109.164062 124.296875 122.617188 114.429688 134.375 C 110.46875 139.078125 105.632812 143.0625 101.074219 147.242188 C 99.894531 148.324219 98.285156 148.921875 96.859375 149.738281 C 96.554688 149.421875 96.25 149.105469 95.945312 148.789062 C 97.140625 146.863281 98.234375 144.867188 99.574219 143.050781 C 100.417969 141.917969 101.609375 141.039062 102.683594 140.089844 C 116.464844 127.90625 120.144531 112.515625 116.390625 95.078125 C 113.527344 81.761719 106.351562 70.761719 96.519531 61.511719 C 86.148438 51.738281 73.941406 45.113281 60.269531 41.140625 C 59.660156 40.957031 59.039062 40.808594 58.417969 40.714844 C 58.136719 40.6875 57.832031 40.835938 57.066406 41.003906 Z M 57.066406 41.003906 " fill-opacity="1" fill-rule="nonzero"/></g></svg>