<svg xmlns="http://www.w3.org/2000/svg" xmlns:xlink="http://www.w3.org/1999/xlink" width="400" zoomAndPan="magnify" viewBox="0 0 300 299.999988" height="400" preserveAspectRatio="xMidYMid meet" version="1.0"><defs><g/><clipPath id="id1"><path d="M 0 195 L 13 195 L 13 207.808594 L 0 207.808594 Z M 0 195 " clip-rule="nonzero"/></clipPath><clipPath id="id2"><path d="M 79 195 L 91.5 195 L 91.5 207.808594 L 79 207.808594 Z M 79 195 " clip-rule="nonzero"/></clipPath><clipPath id="id3"><path d="M 0 84.808594 L 13 84.808594 L 13 97 L 0 97 Z M 0 84.808594 " clip-rule="nonzero"/></clipPath><clipPath id="id4"><path d="M 79 84.808594 L 91.5 84.808594 L 91.5 97 L 79 97 Z M 79 84.808594 " clip-rule="nonzero"/></clipPath></defs><path fill="#000000" d="M 76.996094 110.203125 C 76.175781 110.886719 74.976562 110.839844 74.207031 110.105469 C 70.835938 106.890625 61.042969 99.007812 46.105469 99.007812 C 31.164062 99.007812 22.570312 106.667969 19.601562 109.90625 C 18.890625 110.683594 17.703125 110.796875 16.847656 110.183594 L 16.582031 109.992188 C 15.554688 109.257812 15.40625 107.804688 16.257812 106.878906 C 19.78125 103.042969 29.496094 94.496094 46.105469 94.496094 C 62.8125 94.496094 73.542969 103.148438 77.394531 106.882812 C 78.28125 107.742188 78.21875 109.183594 77.269531 109.976562 Z M 76.996094 110.203125 " fill-opacity="1" fill-rule="nonzero"/><path fill="#000000" d="M 10.894531 138.152344 L 10.59375 138.097656 C 9.378906 137.878906 8.617188 136.675781 8.945312 135.488281 C 11.003906 128.011719 19.707031 104.226562 46.917969 104.226562 C 72.871094 104.222656 80.089844 126.203125 81.757812 133.402344 C 82.035156 134.605469 81.207031 135.78125 79.980469 135.9375 L 79.679688 135.976562 C 78.597656 136.113281 77.597656 135.402344 77.367188 134.339844 C 76 128.082031 69.921875 108.738281 46.921875 108.738281 C 46.917969 108.738281 46.917969 108.738281 46.917969 108.738281 C 22.472656 108.742188 15.011719 130.039062 13.289062 136.628906 C 13.011719 137.683594 11.96875 138.34375 10.894531 138.152344 Z M 10.894531 138.152344 " fill-opacity="1" fill-rule="nonzero"/><path fill="#000000" d="M 82.640625 151.980469 C 82.566406 153.253906 81.382812 154.1875 80.136719 153.921875 C 74.871094 152.800781 68.773438 148.84375 69.023438 140.796875 C 69.195312 135.371094 67.539062 131.457031 66.4375 129.476562 C 65.945312 128.589844 66.167969 127.484375 66.960938 126.847656 L 67.222656 126.640625 C 68.222656 125.832031 69.726562 126.105469 70.351562 127.226562 C 71.757812 129.746094 73.746094 134.492188 73.546875 140.9375 C 73.359375 146.914062 78.316406 148.851562 81.039062 149.464844 C 82.035156 149.691406 82.714844 150.597656 82.660156 151.617188 Z M 82.640625 151.980469 " fill-opacity="1" fill-rule="nonzero"/><path fill="#000000" d="M 18.230469 180.296875 L 18.089844 179.972656 C 17.695312 179.054688 18.023438 178 18.839844 177.425781 C 23.625 174.070312 21.042969 167.207031 20.617188 166.175781 C 9.578125 143.128906 20.953125 127.988281 28.722656 121.011719 C 32.429688 117.6875 36.761719 115.34375 41.253906 114.242188 C 52.835938 111.398438 60.679688 116.371094 63.976562 119.152344 C 64.957031 119.976562 64.953125 121.480469 63.984375 122.316406 L 63.734375 122.535156 C 62.957031 123.207031 61.808594 123.222656 61.023438 122.558594 C 58.425781 120.375 51.984375 116.253906 42.335938 118.625 C 38.5625 119.550781 34.902344 121.539062 31.746094 124.367188 C 24.914062 130.507812 14.910156 143.855469 24.722656 164.28125 L 24.765625 164.375 C 26.535156 168.539062 27.789062 176.917969 21.277344 181.246094 C 20.203125 181.960938 18.734375 181.480469 18.230469 180.296875 Z M 18.230469 180.296875 " fill-opacity="1" fill-rule="nonzero"/><path fill="#000000" d="M 31.675781 185.351562 C 30.582031 186.125 29.046875 185.648438 28.546875 184.40625 L 27.75 182.4375 L 28.597656 184.53125 L 28.425781 184.121094 C 28.0625 183.230469 28.332031 182.191406 29.117188 181.632812 C 30.074219 180.941406 31.300781 179.792969 31.984375 178.097656 C 32.90625 175.804688 32.65625 173 31.246094 169.761719 C 27.621094 161.441406 24.160156 145.035156 29.484375 133.933594 C 32.015625 128.664062 36.15625 125.207031 41.796875 123.664062 C 47.847656 122.003906 53.011719 122.640625 57.140625 125.550781 C 64.445312 130.703125 65.746094 141.210938 65.917969 142.980469 C 65.921875 143.054688 65.933594 143.121094 65.945312 143.195312 C 67.230469 149.980469 69.730469 154.628906 73.378906 157.019531 C 75.507812 158.414062 77.625 158.734375 79.007812 158.757812 C 79.96875 158.777344 80.785156 159.445312 81 160.378906 L 81.074219 160.707031 C 81.378906 162.027344 80.371094 163.285156 79.011719 163.269531 C 76.953125 163.246094 73.929688 162.78125 70.894531 160.792969 C 66.136719 157.675781 62.960938 151.953125 61.457031 143.792969 L 61.425781 143.546875 C 61.417969 143.453125 60.59375 133.496094 54.519531 129.230469 C 51.550781 127.144531 47.675781 126.734375 42.992188 128.015625 C 38.671875 129.199219 35.5 131.847656 33.566406 135.882812 C 28.929688 145.550781 32.226562 160.691406 35.390625 167.960938 C 37.320312 172.382812 37.574219 176.386719 36.148438 179.859375 C 35.050781 182.53125 33.167969 184.296875 31.675781 185.351562 Z M 31.675781 185.351562 " fill-opacity="1" fill-rule="nonzero"/><path fill="#000000" d="M 62.539062 198.425781 C 62.386719 199.691406 61.144531 200.53125 59.910156 200.195312 C 56.765625 199.339844 51.035156 197.097656 46.125 191.480469 C 43.941406 188.980469 42.089844 187.683594 40.625 187.625 C 38.753906 187.539062 36.636719 189.445312 34.0625 191.9375 C 29.21875 196.621094 22.785156 194.074219 19.558594 192.277344 C 18.449219 191.660156 18.144531 190.210938 18.90625 189.199219 L 20.261719 187.394531 L 18.902344 189.199219 L 19.105469 188.929688 C 19.738281 188.085938 20.890625 187.851562 21.816406 188.363281 C 24.058594 189.605469 28.222656 191.296875 30.914062 188.695312 C 34.277344 185.4375 37.164062 182.964844 40.816406 183.113281 C 43.644531 183.230469 46.417969 184.945312 49.53125 188.511719 C 53.667969 193.242188 58.546875 195.125 61.082031 195.828125 C 62.070312 196.101562 62.699219 197.066406 62.578125 198.082031 Z M 62.539062 198.425781 " fill-opacity="1" fill-rule="nonzero"/><path fill="#000000" d="M 47.078125 202.867188 C 42.121094 198.710938 36.300781 199.6875 33.515625 200.523438 C 32.535156 200.816406 31.488281 200.335938 31.046875 199.414062 L 30.890625 199.09375 C 30.339844 197.941406 30.9375 196.566406 32.160156 196.191406 C 36.707031 194.792969 44.007812 194.386719 50.011719 199.429688 C 50.976562 200.242188 51.015625 201.71875 50.089844 202.574219 L 49.800781 202.84375 C 49.035156 203.550781 47.878906 203.535156 47.078125 202.867188 Z M 47.078125 202.867188 " fill-opacity="1" fill-rule="nonzero"/><path fill="#000000" d="M 66.199219 193.503906 L 65.871094 193.464844 C 64.839844 193.34375 64.085938 192.484375 64.023438 191.449219 C 63.867188 188.839844 62.535156 187.875 61.992188 187.589844 C 61.890625 187.539062 61.789062 187.5 61.683594 187.464844 C 45.367188 182.449219 35.617188 169.683594 34.214844 151.503906 L 34.183594 151.105469 C 33.914062 147.882812 34.640625 139.777344 38.605469 135.296875 C 40.378906 133.292969 42.660156 132.179688 45.199219 132.078125 C 50.953125 131.851562 53.566406 134.9375 54.609375 136.800781 C 55.417969 138.25 55.839844 140 55.824219 141.863281 C 55.667969 162.335938 70.308594 167.003906 75.585938 168.019531 C 76.632812 168.222656 77.351562 169.171875 77.269531 170.234375 L 77.246094 170.523438 C 77.148438 171.777344 75.972656 172.667969 74.734375 172.40625 C 68.355469 171.0625 51.121094 165.253906 51.300781 141.828125 C 51.3125 140.746094 51.089844 139.765625 50.660156 139 C 49.695312 137.269531 47.976562 136.484375 45.386719 136.585938 C 44.070312 136.640625 42.960938 137.195312 41.996094 138.285156 C 39.226562 141.417969 38.46875 148.042969 38.691406 150.730469 L 38.726562 151.160156 C 39.996094 167.660156 48.453125 178.742188 63.1875 183.203125 C 65.09375 183.816406 68.257812 186.234375 68.539062 191.273438 C 68.613281 192.585938 67.507812 193.660156 66.199219 193.503906 Z M 66.199219 193.503906 " fill-opacity="1" fill-rule="nonzero"/><path fill="#000000" d="M 50.621094 169.90625 C 41.265625 160.4375 41.882812 148.488281 42.652344 143.53125 C 42.84375 142.296875 44.058594 141.492188 45.265625 141.820312 L 45.605469 141.910156 C 46.632812 142.1875 47.277344 143.195312 47.113281 144.246094 C 46.46875 148.378906 45.882812 158.628906 53.804688 166.699219 C 54.578125 167.484375 54.632812 168.726562 53.90625 169.550781 L 53.6875 169.804688 C 52.886719 170.710938 51.472656 170.765625 50.621094 169.90625 Z M 50.621094 169.90625 " fill-opacity="1" fill-rule="nonzero"/><path fill="#000000" d="M 71.902344 182.292969 C 66.300781 181.222656 60.222656 177.539062 57.269531 175.570312 C 56.273438 174.90625 56.042969 173.546875 56.757812 172.585938 L 56.960938 172.316406 C 57.628906 171.421875 58.878906 171.210938 59.808594 171.832031 C 62.488281 173.613281 67.988281 176.964844 72.691406 177.855469 C 73.707031 178.046875 74.425781 178.957031 74.382812 179.988281 L 74.367188 180.316406 C 74.3125 181.585938 73.148438 182.527344 71.902344 182.292969 Z M 71.902344 182.292969 " fill-opacity="1" fill-rule="nonzero"/><g clip-path="url(#id1)"><path fill="#000000" d="M 3.445312 201.957031 L 3.445312 197.296875 C 3.445312 196.367188 2.691406 195.613281 1.757812 195.613281 C 0.828125 195.613281 0.0742188 196.367188 0.0742188 197.296875 L 0.0742188 204.425781 C 0.0742188 206.28125 1.582031 207.789062 3.445312 207.789062 L 10.585938 207.789062 C 11.515625 207.789062 12.273438 207.035156 12.273438 206.105469 C 12.273438 205.179688 11.515625 204.425781 10.585938 204.425781 L 5.917969 204.425781 C 4.550781 204.425781 3.445312 203.320312 3.445312 201.957031 Z M 3.445312 201.957031 " fill-opacity="1" fill-rule="nonzero"/></g><g clip-path="url(#id2)"><path fill="#000000" d="M 88.085938 201.957031 L 88.085938 197.296875 C 88.085938 196.367188 88.84375 195.613281 89.773438 195.613281 C 90.703125 195.613281 91.457031 196.367188 91.457031 197.296875 L 91.457031 204.425781 C 91.457031 206.28125 89.949219 207.789062 88.085938 207.789062 L 80.945312 207.789062 C 80.015625 207.789062 79.257812 207.035156 79.257812 206.105469 C 79.257812 205.179688 80.015625 204.425781 80.945312 204.425781 L 85.613281 204.425781 C 86.980469 204.425781 88.085938 203.320312 88.085938 201.957031 Z M 88.085938 201.957031 " fill-opacity="1" fill-rule="nonzero"/></g><g clip-path="url(#id3)"><path fill="#000000" d="M 3.445312 90.632812 L 3.445312 95.292969 C 3.445312 96.21875 2.691406 96.972656 1.757812 96.972656 C 0.828125 96.972656 0.0742188 96.21875 0.0742188 95.292969 L 0.0742188 88.164062 C 0.0742188 86.304688 1.582031 84.800781 3.445312 84.800781 L 10.585938 84.800781 C 11.515625 84.800781 12.273438 85.554688 12.273438 86.480469 C 12.273438 87.410156 11.515625 88.164062 10.585938 88.164062 L 5.917969 88.164062 C 4.550781 88.164062 3.445312 89.269531 3.445312 90.632812 Z M 3.445312 90.632812 " fill-opacity="1" fill-rule="nonzero"/></g><g clip-path="url(#id4)"><path fill="#000000" d="M 88.085938 90.632812 L 88.085938 95.292969 C 88.085938 96.21875 88.84375 96.972656 89.773438 96.972656 C 90.703125 96.972656 91.457031 96.21875 91.457031 95.292969 L 91.457031 88.164062 C 91.457031 86.304688 89.949219 84.800781 88.085938 84.800781 L 80.945312 84.800781 C 80.015625 84.800781 79.257812 85.554688 79.257812 86.480469 C 79.257812 87.410156 80.015625 88.164062 80.945312 88.164062 L 85.613281 88.164062 C 86.980469 88.164062 88.085938 89.269531 88.085938 90.632812 Z M 88.085938 90.632812 " fill-opacity="1" fill-rule="nonzero"/></g><path fill="#ff1616" d="M 50.089844 202.574219 L 49.800781 202.84375 C 49.035156 203.550781 47.878906 203.535156 47.078125 202.867188 C 42.121094 198.710938 36.300781 199.691406 33.515625 200.523438 C 32.535156 200.816406 31.488281 200.335938 31.046875 199.414062 L 30.890625 199.09375 C 30.339844 197.941406 30.9375 196.566406 32.160156 196.191406 C 36.707031 194.792969 44.007812 194.386719 50.011719 199.429688 C 50.976562 200.242188 51.015625 201.71875 50.089844 202.574219 Z M 62.578125 198.085938 L 62.539062 198.425781 C 62.386719 199.691406 61.144531 200.53125 59.910156 200.195312 C 56.765625 199.339844 51.035156 197.097656 46.125 191.480469 C 43.941406 188.980469 42.089844 187.683594 40.625 187.625 C 38.753906 187.539062 36.636719 189.445312 34.0625 191.9375 C 29.21875 196.621094 22.785156 194.074219 19.558594 192.277344 C 18.449219 191.660156 18.144531 190.210938 18.90625 189.199219 L 18.902344 189.199219 L 18.90625 189.199219 L 18.910156 189.191406 L 19.105469 188.929688 C 19.105469 188.929688 19.109375 188.925781 19.109375 188.925781 L 20.261719 187.394531 L 19.109375 188.925781 C 19.746094 188.085938 20.894531 187.851562 21.816406 188.363281 C 24.058594 189.605469 28.222656 191.296875 30.914062 188.695312 C 34.277344 185.4375 37.164062 182.964844 40.816406 183.113281 C 43.644531 183.230469 46.417969 184.949219 49.53125 188.511719 C 53.667969 193.242188 58.546875 195.128906 61.082031 195.828125 C 62.070312 196.101562 62.699219 197.066406 62.578125 198.085938 Z M 74.367188 180.316406 C 74.3125 181.585938 73.148438 182.527344 71.902344 182.292969 C 66.304688 181.222656 60.222656 177.539062 57.269531 175.570312 C 56.273438 174.90625 56.042969 173.546875 56.757812 172.585938 L 56.960938 172.316406 C 57.628906 171.421875 58.878906 171.210938 59.808594 171.832031 C 62.488281 173.613281 67.988281 176.964844 72.691406 177.855469 C 73.707031 178.046875 74.425781 178.957031 74.382812 179.988281 Z M 74.367188 180.316406 " fill-opacity="1" fill-rule="nonzero"/><path fill="#ff1616" d="M 80.136719 153.921875 C 81.382812 154.1875 82.570312 153.253906 82.640625 151.980469 L 82.660156 151.617188 C 82.714844 150.597656 82.035156 149.691406 81.039062 149.464844 C 79.417969 149.101562 77.011719 148.257812 75.363281 146.382812 L 70.054688 146.382812 C 71.980469 150.742188 76.277344 153.097656 80.136719 153.921875 Z M 80.136719 153.921875 " fill-opacity="1" fill-rule="nonzero"/><path fill="#ff1616" d="M 20.617188 166.175781 C 21.042969 167.207031 23.625 174.070312 18.839844 177.425781 C 18.023438 178 17.695312 179.054688 18.089844 179.972656 L 18.230469 180.296875 C 18.734375 181.480469 20.203125 181.960938 21.277344 181.246094 C 27.789062 176.914062 26.535156 168.539062 24.765625 164.375 L 24.722656 164.28125 C 21.484375 157.539062 20.414062 151.574219 20.664062 146.378906 L 16.066406 146.378906 C 15.839844 152.15625 17.0625 158.753906 20.617188 166.175781 Z M 20.617188 166.175781 " fill-opacity="1" fill-rule="nonzero"/><path fill="#ff1616" d="M 31.246094 169.761719 C 32.65625 173 32.90625 175.804688 31.984375 178.097656 C 31.300781 179.792969 30.074219 180.941406 29.117188 181.632812 C 28.34375 182.183594 28.070312 183.203125 28.414062 184.082031 L 28.546875 184.40625 C 29.046875 185.648438 30.582031 186.125 31.675781 185.351562 C 33.167969 184.292969 35.050781 182.53125 36.148438 179.859375 C 37.574219 176.386719 37.320312 172.382812 35.390625 167.960938 C 33.234375 163.011719 31.023438 154.414062 31.289062 146.378906 L 26.769531 146.378906 C 26.503906 155.125 28.835938 164.230469 31.246094 169.761719 Z M 31.246094 169.761719 " fill-opacity="1" fill-rule="nonzero"/><path fill="#ff1616" d="M 70.894531 160.792969 C 73.929688 162.78125 76.953125 163.246094 79.011719 163.269531 C 80.371094 163.285156 81.378906 162.027344 81.074219 160.707031 L 81 160.378906 C 80.785156 159.445312 79.96875 158.777344 79.007812 158.757812 C 77.625 158.734375 75.507812 158.414062 73.378906 157.019531 C 70.335938 155.023438 68.09375 151.449219 66.6875 146.378906 L 62.015625 146.378906 C 63.679688 153.171875 66.660156 158.015625 70.894531 160.792969 Z M 70.894531 160.792969 " fill-opacity="1" fill-rule="nonzero"/><path fill="#ff1616" d="M 27.753906 182.4375 L 28.414062 184.082031 Z M 27.753906 182.4375 " fill-opacity="1" fill-rule="nonzero"/><path fill="#ff1616" d="M 28.414062 184.082031 C 28.421875 184.097656 28.421875 184.109375 28.425781 184.121094 L 28.597656 184.53125 L 28.546875 184.40625 Z M 28.414062 184.082031 " fill-opacity="1" fill-rule="nonzero"/><path fill="#ff1616" d="M 28.546875 184.394531 L 28.414062 184.070312 Z M 28.546875 184.394531 " fill-opacity="1" fill-rule="nonzero"/><path fill="#ff1616" d="M 19.105469 188.929688 L 18.910156 189.191406 L 19.109375 188.925781 C 19.109375 188.925781 19.105469 188.929688 19.105469 188.929688 Z M 19.105469 188.929688 " fill-opacity="1" fill-rule="nonzero"/><path fill="#ff1616" d="M 19.109375 188.925781 L 18.910156 189.191406 L 18.90625 189.199219 Z M 19.109375 188.925781 " fill-opacity="1" fill-rule="nonzero"/><path fill="#ff1616" d="M 20.261719 187.394531 L 19.109375 188.925781 Z M 20.261719 187.394531 " fill-opacity="1" fill-rule="nonzero"/><path fill="#ff1616" d="M 18.90625 189.199219 L 18.910156 189.191406 Z M 18.90625 189.199219 " fill-opacity="1" fill-rule="nonzero"/><path fill="#ff1616" d="M 61.082031 195.828125 C 58.546875 195.128906 53.667969 193.246094 49.53125 188.511719 C 46.417969 184.949219 43.644531 183.230469 40.816406 183.113281 C 37.164062 182.964844 34.277344 185.441406 30.914062 188.695312 C 28.222656 191.296875 24.058594 189.605469 21.816406 188.363281 C 20.894531 187.855469 19.746094 188.085938 19.109375 188.925781 L 18.90625 189.199219 C 18.144531 190.210938 18.449219 191.660156 19.558594 192.277344 C 22.785156 194.074219 29.21875 196.621094 34.0625 191.9375 C 36.636719 189.445312 38.753906 187.539062 40.625 187.625 C 42.089844 187.683594 43.941406 188.984375 46.125 191.480469 C 51.035156 197.101562 56.765625 199.339844 59.910156 200.195312 C 61.144531 200.53125 62.386719 199.691406 62.539062 198.425781 L 62.578125 198.085938 C 62.699219 197.066406 62.070312 196.101562 61.082031 195.828125 Z M 61.082031 195.828125 " fill-opacity="1" fill-rule="nonzero"/><path fill="#ff1616" d="M 32.160156 196.1875 C 30.9375 196.566406 30.339844 197.941406 30.890625 199.089844 L 31.046875 199.414062 C 31.488281 200.335938 32.535156 200.816406 33.515625 200.523438 C 36.300781 199.6875 42.121094 198.710938 47.078125 202.867188 C 47.878906 203.535156 49.035156 203.550781 49.800781 202.84375 L 50.089844 202.574219 C 51.015625 201.714844 50.976562 200.242188 50.011719 199.429688 C 44.007812 194.382812 36.707031 194.792969 32.160156 196.1875 Z M 32.160156 196.1875 " fill-opacity="1" fill-rule="nonzero"/><path fill="#ff1616" d="M 34.183594 151.105469 L 34.21875 151.503906 C 35.617188 169.683594 45.367188 182.449219 61.683594 187.464844 C 61.789062 187.5 61.890625 187.539062 61.992188 187.589844 C 62.535156 187.875 63.867188 188.839844 64.023438 191.449219 C 64.085938 192.484375 64.839844 193.34375 65.871094 193.464844 L 66.199219 193.503906 C 67.507812 193.660156 68.613281 192.585938 68.539062 191.273438 C 68.257812 186.234375 65.09375 183.820312 63.1875 183.203125 C 48.453125 178.742188 39.996094 167.660156 38.726562 151.160156 L 38.691406 150.734375 C 38.605469 149.714844 38.664062 148.128906 38.917969 146.382812 L 34.359375 146.382812 C 34.125 148.300781 34.09375 149.996094 34.183594 151.105469 Z M 34.183594 151.105469 " fill-opacity="1" fill-rule="nonzero"/><path fill="#ff1616" d="M 74.734375 172.40625 C 75.972656 172.667969 77.148438 171.777344 77.246094 170.523438 L 77.269531 170.234375 C 77.351562 169.171875 76.632812 168.222656 75.585938 168.019531 C 70.722656 167.082031 57.914062 163.035156 56.058594 146.382812 L 51.507812 146.382812 C 53.433594 166.019531 68.792969 171.15625 74.734375 172.40625 Z M 74.734375 172.40625 " fill-opacity="1" fill-rule="nonzero"/><path fill="#ff1616" d="M 50.621094 169.90625 C 51.472656 170.765625 52.886719 170.710938 53.6875 169.804688 L 53.90625 169.550781 C 54.632812 168.726562 54.578125 167.484375 53.804688 166.699219 C 47.019531 159.785156 46.476562 151.277344 46.863281 146.382812 L 42.335938 146.382812 C 41.9375 152.21875 42.75 161.9375 50.621094 169.90625 Z M 50.621094 169.90625 " fill-opacity="1" fill-rule="nonzero"/><path fill="#ff1616" d="M 72.691406 177.855469 C 67.988281 176.964844 62.488281 173.613281 59.808594 171.832031 C 58.878906 171.210938 57.628906 171.421875 56.960938 172.316406 L 56.757812 172.585938 C 56.042969 173.546875 56.273438 174.90625 57.269531 175.570312 C 60.222656 177.539062 66.300781 181.222656 71.902344 182.292969 C 73.148438 182.527344 74.3125 181.585938 74.367188 180.316406 L 74.382812 179.988281 C 74.425781 178.957031 73.707031 178.046875 72.691406 177.855469 Z M 72.691406 177.855469 " fill-opacity="1" fill-rule="nonzero"/><path fill="#000000" d="M 87.230469 148.628906 L 4.300781 148.628906 C 3.230469 148.628906 2.367188 147.765625 2.367188 146.699219 C 2.367188 145.632812 3.230469 144.769531 4.300781 144.769531 L 87.230469 144.769531 C 88.300781 144.769531 89.164062 145.632812 89.164062 146.699219 C 89.164062 147.765625 88.300781 148.628906 87.230469 148.628906 Z M 87.230469 148.628906 " fill-opacity="1" fill-rule="nonzero"/><g fill="#000000" fill-opacity="1"><g transform="translate(86.766379, 148.497586)"><g><path d="M 31.578125 0 L 29.921875 -20.8125 L 29.703125 -20.8125 L 22.515625 -0.21875 L 17.75 -0.21875 L 10.5625 -20.8125 L 10.34375 -20.8125 L 8.6875 0 L 0.6875 0 L 3.828125 -35.109375 L 12.34375 -35.109375 L 20.125 -14.859375 L 27.921875 -35.109375 L 36.4375 -35.109375 L 39.578125 0 Z M 31.578125 0 "/></g></g></g><g fill="#000000" fill-opacity="1"><g transform="translate(127.026274, 148.497586)"><g><path d="M 4.046875 -2.703125 C 2.003906 -4.929688 0.984375 -7.660156 0.984375 -10.890625 C 0.984375 -14.128906 2.003906 -16.867188 4.046875 -19.109375 C 6.085938 -21.347656 8.679688 -22.46875 11.828125 -22.46875 C 14.722656 -22.46875 17.109375 -21.5625 18.984375 -19.75 L 18.984375 -21.828125 L 26.515625 -21.828125 L 26.515625 0 L 19.0625 0 L 19.0625 -2.46875 L 18.984375 -2.46875 C 17.109375 -0.394531 14.722656 0.640625 11.828125 0.640625 C 8.679688 0.640625 6.085938 -0.472656 4.046875 -2.703125 Z M 10.453125 -14.59375 C 9.472656 -13.632812 8.984375 -12.398438 8.984375 -10.890625 C 8.984375 -9.390625 9.453125 -8.160156 10.390625 -7.203125 C 11.328125 -6.253906 12.5625 -5.78125 14.09375 -5.78125 C 15.5625 -5.78125 16.769531 -6.265625 17.71875 -7.234375 C 18.675781 -8.203125 19.15625 -9.421875 19.15625 -10.890625 C 19.15625 -12.398438 18.664062 -13.632812 17.6875 -14.59375 C 16.707031 -15.5625 15.507812 -16.046875 14.09375 -16.046875 C 12.644531 -16.046875 11.429688 -15.5625 10.453125 -14.59375 Z M 10.453125 -14.59375 "/></g></g></g><g fill="#000000" fill-opacity="1"><g transform="translate(156.093411, 148.497586)"><g><path d="M 27.5 -21.828125 L 17.109375 -11.40625 L 28.515625 0 L 18.8125 0 L 10.09375 -8.71875 L 10.09375 0 L 2.546875 0 L 2.546875 -36.609375 L 10.09375 -36.609375 L 10.09375 -14.21875 L 17.703125 -21.828125 Z M 27.5 -21.828125 "/></g></g></g><g fill="#000000" fill-opacity="1"><g transform="translate(183.585899, 148.497586)"><g><path d="M 24.640625 -9.875 L 8.8125 -9.875 C 8.8125 -8.34375 9.304688 -7.207031 10.296875 -6.46875 C 11.296875 -5.726562 12.375 -5.359375 13.53125 -5.359375 C 14.75 -5.359375 15.710938 -5.519531 16.421875 -5.84375 C 17.140625 -6.175781 17.953125 -6.820312 18.859375 -7.78125 L 24.296875 -5.0625 C 22.023438 -1.257812 18.253906 0.640625 12.984375 0.640625 C 9.691406 0.640625 6.867188 -0.484375 4.515625 -2.734375 C 2.160156 -4.992188 0.984375 -7.710938 0.984375 -10.890625 C 0.984375 -14.066406 2.160156 -16.789062 4.515625 -19.0625 C 6.867188 -21.332031 9.691406 -22.46875 12.984375 -22.46875 C 16.441406 -22.46875 19.253906 -21.46875 21.421875 -19.46875 C 23.597656 -17.46875 24.6875 -14.609375 24.6875 -10.890625 C 24.6875 -10.378906 24.671875 -10.039062 24.640625 -9.875 Z M 9.015625 -14.046875 L 17.328125 -14.046875 C 17.148438 -15.179688 16.695312 -16.050781 15.96875 -16.65625 C 15.25 -17.269531 14.320312 -17.578125 13.1875 -17.578125 C 11.945312 -17.578125 10.957031 -17.25 10.21875 -16.59375 C 9.476562 -15.945312 9.078125 -15.097656 9.015625 -14.046875 Z M 9.015625 -14.046875 "/></g></g></g><g fill="#000000" fill-opacity="1"><g transform="translate(209.248388, 148.497586)"><g><path d="M 31.578125 0 L 29.921875 -20.8125 L 29.703125 -20.8125 L 22.515625 -0.21875 L 17.75 -0.21875 L 10.5625 -20.8125 L 10.34375 -20.8125 L 8.6875 0 L 0.6875 0 L 3.828125 -35.109375 L 12.34375 -35.109375 L 20.125 -14.859375 L 27.921875 -35.109375 L 36.4375 -35.109375 L 39.578125 0 Z M 31.578125 0 "/></g></g></g><g fill="#000000" fill-opacity="1"><g transform="translate(249.508217, 148.497586)"><g/></g></g><g fill="#000000" fill-opacity="1"><g transform="translate(113.535587, 189.620038)"><g><path d="M 2.578125 -35.546875 L 15.5625 -35.546875 C 19.175781 -35.546875 22.101562 -34.613281 24.34375 -32.75 C 26.582031 -30.882812 27.703125 -28.171875 27.703125 -24.609375 C 27.703125 -21.046875 26.566406 -18.25 24.296875 -16.21875 C 22.035156 -14.195312 19.125 -13.1875 15.5625 -13.1875 L 10.6875 -13.1875 L 10.6875 0 L 2.578125 0 Z M 10.6875 -19.65625 L 12.96875 -19.65625 C 14.78125 -19.65625 16.265625 -20.019531 17.421875 -20.75 C 18.585938 -21.476562 19.171875 -22.675781 19.171875 -24.34375 C 19.171875 -26.039062 18.585938 -27.253906 17.421875 -27.984375 C 16.265625 -28.722656 14.78125 -29.09375 12.96875 -29.09375 L 10.6875 -29.09375 Z M 10.6875 -19.65625 "/></g></g></g><g fill="#000000" fill-opacity="1"><g transform="translate(142.231426, 189.620038)"><g><path d="M 2.578125 0 L 2.578125 -22.109375 L 10.21875 -22.109375 L 10.21875 -18.921875 L 10.296875 -18.921875 C 10.359375 -19.035156 10.453125 -19.175781 10.578125 -19.34375 C 10.703125 -19.519531 10.976562 -19.820312 11.40625 -20.25 C 11.84375 -20.6875 12.304688 -21.078125 12.796875 -21.421875 C 13.285156 -21.765625 13.914062 -22.070312 14.6875 -22.34375 C 15.46875 -22.613281 16.257812 -22.75 17.0625 -22.75 C 17.894531 -22.75 18.710938 -22.632812 19.515625 -22.40625 C 20.328125 -22.175781 20.914062 -21.945312 21.28125 -21.71875 L 21.890625 -21.375 L 18.703125 -14.90625 C 17.753906 -15.707031 16.429688 -16.109375 14.734375 -16.109375 C 13.816406 -16.109375 13.023438 -15.90625 12.359375 -15.5 C 11.703125 -15.101562 11.238281 -14.617188 10.96875 -14.046875 C 10.695312 -13.472656 10.503906 -12.984375 10.390625 -12.578125 C 10.273438 -12.179688 10.21875 -11.867188 10.21875 -11.640625 L 10.21875 0 Z M 2.578125 0 "/></g></g></g><g fill="#000000" fill-opacity="1"><g transform="translate(163.688671, 189.620038)"><g><path d="M 3.3125 -34.421875 C 4.207031 -35.316406 5.269531 -35.765625 6.5 -35.765625 C 7.738281 -35.765625 8.800781 -35.316406 9.6875 -34.421875 C 10.582031 -33.535156 11.03125 -32.472656 11.03125 -31.234375 C 11.03125 -30.003906 10.582031 -28.941406 9.6875 -28.046875 C 8.800781 -27.160156 7.738281 -26.71875 6.5 -26.71875 C 5.269531 -26.71875 4.207031 -27.160156 3.3125 -28.046875 C 2.425781 -28.941406 1.984375 -30.003906 1.984375 -31.234375 C 1.984375 -32.472656 2.425781 -33.535156 3.3125 -34.421875 Z M 2.578125 -22.109375 L 2.578125 0 L 10.21875 0 L 10.21875 -22.109375 Z M 2.578125 -22.109375 "/></g></g></g><g fill="#000000" fill-opacity="1"><g transform="translate(176.700898, 189.620038)"><g><path d="M 8.1875 -22.109375 L 13.578125 -10.078125 L 18.96875 -22.109375 L 28.015625 -22.109375 L 16.15625 0 L 10.984375 0 L -0.859375 -22.109375 Z M 8.1875 -22.109375 "/></g></g></g><g fill="#000000" fill-opacity="1"><g transform="translate(203.84561, 189.620038)"><g><path d="M 4.09375 -2.734375 C 2.019531 -4.992188 0.984375 -7.757812 0.984375 -11.03125 C 0.984375 -14.300781 2.019531 -17.070312 4.09375 -19.34375 C 6.164062 -21.613281 8.796875 -22.75 11.984375 -22.75 C 14.910156 -22.75 17.320312 -21.832031 19.21875 -20 L 19.21875 -22.109375 L 26.84375 -22.109375 L 26.84375 0 L 19.3125 0 L 19.3125 -2.5 L 19.21875 -2.5 C 17.320312 -0.40625 14.910156 0.640625 11.984375 0.640625 C 8.796875 0.640625 6.164062 -0.484375 4.09375 -2.734375 Z M 10.578125 -14.78125 C 9.585938 -13.800781 9.09375 -12.550781 9.09375 -11.03125 C 9.09375 -9.507812 9.566406 -8.265625 10.515625 -7.296875 C 11.460938 -6.335938 12.710938 -5.859375 14.265625 -5.859375 C 15.753906 -5.859375 16.976562 -6.347656 17.9375 -7.328125 C 18.90625 -8.304688 19.390625 -9.539062 19.390625 -11.03125 C 19.390625 -12.550781 18.894531 -13.800781 17.90625 -14.78125 C 16.914062 -15.757812 15.703125 -16.25 14.265625 -16.25 C 12.796875 -16.25 11.566406 -15.757812 10.578125 -14.78125 Z M 10.578125 -14.78125 "/></g></g></g><g fill="#000000" fill-opacity="1"><g transform="translate(233.273929, 189.620038)"><g><path d="M 14.34375 -16.5 C 12.914062 -16.5 11.679688 -15.96875 10.640625 -14.90625 C 9.609375 -13.84375 9.09375 -12.566406 9.09375 -11.078125 C 9.09375 -9.554688 9.609375 -8.265625 10.640625 -7.203125 C 11.679688 -6.140625 12.914062 -5.609375 14.34375 -5.609375 C 15.039062 -5.609375 15.695312 -5.691406 16.3125 -5.859375 C 16.925781 -6.035156 17.378906 -6.207031 17.671875 -6.375 L 18.0625 -6.640625 L 20.640625 -1.328125 C 20.441406 -1.191406 20.160156 -1.015625 19.796875 -0.796875 C 19.441406 -0.578125 18.625 -0.285156 17.34375 0.078125 C 16.0625 0.453125 14.691406 0.640625 13.234375 0.640625 C 9.984375 0.640625 7.128906 -0.5 4.671875 -2.78125 C 2.210938 -5.0625 0.984375 -7.796875 0.984375 -10.984375 C 0.984375 -14.203125 2.210938 -16.96875 4.671875 -19.28125 C 7.128906 -21.59375 9.984375 -22.75 13.234375 -22.75 C 14.691406 -22.75 16.039062 -22.578125 17.28125 -22.234375 C 18.519531 -21.890625 19.394531 -21.546875 19.90625 -21.203125 L 20.640625 -20.6875 L 18.0625 -15.46875 C 17.113281 -16.15625 15.875 -16.5 14.34375 -16.5 Z M 14.34375 -16.5 "/></g></g></g><g fill="#000000" fill-opacity="1"><g transform="translate(249.406729, 160.41633)"><g><path d="M 33.375 -38.140625 L 48.546875 -38.140625 L 18.578125 19.328125 L 3.421875 19.328125 L 16.578125 -5.953125 L -1.484375 -38.140625 L 13.671875 -38.140625 L 24.3125 -18.578125 Z M 33.375 -38.140625 "/></g></g></g><path stroke-linecap="round" transform="matrix(3.774903, 0, 0, 4.114285, 62.027864, 146.35663)" fill="none" stroke-linejoin="miter" d="M 0.499668 -0.000282163 L 8.440682 -0.000282163 " stroke="#000000" stroke-width="1" stroke-opacity="1" stroke-miterlimit="4"/></svg>