<svg xmlns="http://www.w3.org/2000/svg" xmlns:xlink="http://www.w3.org/1999/xlink" width="200" zoomAndPan="magnify" viewBox="0 0 150 30.000001" height="40" preserveAspectRatio="xMidYMid meet" version="1.0"><defs><g/><clipPath id="id1"><path d="M 2.417969 0 L 147.578125 0 L 147.578125 29.03125 L 2.417969 29.03125 Z M 2.417969 0 " clip-rule="nonzero"/></clipPath></defs><g clip-path="url(#id1)"><path fill="#ffffff" d="M 135.226562 0 L 2.417969 0 L 2.417969 29.03125 L 147.582031 29.03125 L 147.582031 0 L 135.226562 0 " fill-opacity="1" fill-rule="nonzero"/></g><path fill="#302e2e" d="M 132.589844 4.132812 L 6.550781 4.132812 L 6.550781 24.898438 L 143.449219 24.898438 L 143.449219 4.132812 L 132.589844 4.132812 M 143.195312 13.914062 L 143.195312 24.648438 L 6.804688 24.648438 L 6.804688 4.386719 L 143.195312 4.386719 L 143.195312 13.914062 M 132.589844 1.941406 L 4.359375 1.941406 L 4.359375 27.09375 L 145.640625 27.09375 L 145.640625 1.941406 L 132.589844 1.941406 M 144.714844 13.832031 L 144.714844 26.164062 L 5.285156 26.164062 L 5.285156 2.867188 L 144.714844 2.867188 L 144.714844 13.832031 " fill-opacity="1" fill-rule="nonzero"/><g fill="#000000" fill-opacity="1"><g transform="translate(8.491508, 19.233873)"><g><path d="M 4.03125 0.109375 C 3.539062 0.109375 3.050781 0.09375 2.5625 0.0625 C 2.070312 0.0390625 1.5625 -0.0234375 1.03125 -0.140625 L 1.03125 -8.859375 C 1.445312 -8.929688 1.898438 -8.988281 2.390625 -9.03125 C 2.890625 -9.070312 3.351562 -9.09375 3.78125 -9.09375 C 4.34375 -9.09375 4.863281 -9.050781 5.34375 -8.96875 C 5.820312 -8.882812 6.234375 -8.742188 6.578125 -8.546875 C 6.929688 -8.347656 7.203125 -8.085938 7.390625 -7.765625 C 7.585938 -7.441406 7.6875 -7.039062 7.6875 -6.5625 C 7.6875 -5.84375 7.34375 -5.273438 6.65625 -4.859375 C 7.226562 -4.648438 7.613281 -4.359375 7.8125 -3.984375 C 8.019531 -3.609375 8.125 -3.1875 8.125 -2.71875 C 8.125 -1.78125 7.78125 -1.070312 7.09375 -0.59375 C 6.40625 -0.125 5.382812 0.109375 4.03125 0.109375 Z M 3.015625 -3.921875 L 3.015625 -1.59375 C 3.160156 -1.570312 3.316406 -1.554688 3.484375 -1.546875 C 3.660156 -1.546875 3.851562 -1.546875 4.0625 -1.546875 C 4.664062 -1.546875 5.148438 -1.628906 5.515625 -1.796875 C 5.890625 -1.972656 6.078125 -2.296875 6.078125 -2.765625 C 6.078125 -3.179688 5.921875 -3.476562 5.609375 -3.65625 C 5.304688 -3.832031 4.863281 -3.921875 4.28125 -3.921875 Z M 3.015625 -5.453125 L 4 -5.453125 C 4.613281 -5.453125 5.054688 -5.53125 5.328125 -5.6875 C 5.597656 -5.851562 5.734375 -6.113281 5.734375 -6.46875 C 5.734375 -6.832031 5.59375 -7.085938 5.3125 -7.234375 C 5.039062 -7.378906 4.632812 -7.453125 4.09375 -7.453125 C 3.925781 -7.453125 3.742188 -7.445312 3.546875 -7.4375 C 3.347656 -7.4375 3.171875 -7.429688 3.015625 -7.421875 Z M 3.015625 -5.453125 "/></g></g></g><g fill="#000000" fill-opacity="1"><g transform="translate(17.202315, 19.233873)"><g><path d="M 7.28125 -3.421875 C 7.28125 -2.890625 7.203125 -2.398438 7.046875 -1.953125 C 6.898438 -1.503906 6.675781 -1.125 6.375 -0.8125 C 6.082031 -0.5 5.726562 -0.253906 5.3125 -0.078125 C 4.90625 0.0976562 4.445312 0.1875 3.9375 0.1875 C 3.4375 0.1875 2.976562 0.0976562 2.5625 -0.078125 C 2.15625 -0.253906 1.804688 -0.5 1.515625 -0.8125 C 1.222656 -1.125 0.992188 -1.503906 0.828125 -1.953125 C 0.660156 -2.398438 0.578125 -2.890625 0.578125 -3.421875 C 0.578125 -3.960938 0.660156 -4.453125 0.828125 -4.890625 C 1.003906 -5.328125 1.238281 -5.703125 1.53125 -6.015625 C 1.832031 -6.328125 2.1875 -6.566406 2.59375 -6.734375 C 3.007812 -6.910156 3.457031 -7 3.9375 -7 C 4.4375 -7 4.890625 -6.910156 5.296875 -6.734375 C 5.703125 -6.566406 6.050781 -6.328125 6.34375 -6.015625 C 6.644531 -5.703125 6.875 -5.328125 7.03125 -4.890625 C 7.195312 -4.453125 7.28125 -3.960938 7.28125 -3.421875 Z M 5.3125 -3.421875 C 5.3125 -4.015625 5.191406 -4.484375 4.953125 -4.828125 C 4.722656 -5.171875 4.382812 -5.34375 3.9375 -5.34375 C 3.5 -5.34375 3.160156 -5.171875 2.921875 -4.828125 C 2.679688 -4.484375 2.5625 -4.015625 2.5625 -3.421875 C 2.5625 -2.828125 2.679688 -2.351562 2.921875 -2 C 3.160156 -1.65625 3.5 -1.484375 3.9375 -1.484375 C 4.382812 -1.484375 4.722656 -1.65625 4.953125 -2 C 5.191406 -2.351562 5.3125 -2.828125 5.3125 -3.421875 Z M 5.3125 -3.421875 "/></g></g></g><g fill="#000000" fill-opacity="1"><g transform="translate(25.070563, 19.233873)"><g><path d="M 7.28125 -3.421875 C 7.28125 -2.890625 7.203125 -2.398438 7.046875 -1.953125 C 6.898438 -1.503906 6.675781 -1.125 6.375 -0.8125 C 6.082031 -0.5 5.726562 -0.253906 5.3125 -0.078125 C 4.90625 0.0976562 4.445312 0.1875 3.9375 0.1875 C 3.4375 0.1875 2.976562 0.0976562 2.5625 -0.078125 C 2.15625 -0.253906 1.804688 -0.5 1.515625 -0.8125 C 1.222656 -1.125 0.992188 -1.503906 0.828125 -1.953125 C 0.660156 -2.398438 0.578125 -2.890625 0.578125 -3.421875 C 0.578125 -3.960938 0.660156 -4.453125 0.828125 -4.890625 C 1.003906 -5.328125 1.238281 -5.703125 1.53125 -6.015625 C 1.832031 -6.328125 2.1875 -6.566406 2.59375 -6.734375 C 3.007812 -6.910156 3.457031 -7 3.9375 -7 C 4.4375 -7 4.890625 -6.910156 5.296875 -6.734375 C 5.703125 -6.566406 6.050781 -6.328125 6.34375 -6.015625 C 6.644531 -5.703125 6.875 -5.328125 7.03125 -4.890625 C 7.195312 -4.453125 7.28125 -3.960938 7.28125 -3.421875 Z M 5.3125 -3.421875 C 5.3125 -4.015625 5.191406 -4.484375 4.953125 -4.828125 C 4.722656 -5.171875 4.382812 -5.34375 3.9375 -5.34375 C 3.5 -5.34375 3.160156 -5.171875 2.921875 -4.828125 C 2.679688 -4.484375 2.5625 -4.015625 2.5625 -3.421875 C 2.5625 -2.828125 2.679688 -2.351562 2.921875 -2 C 3.160156 -1.65625 3.5 -1.484375 3.9375 -1.484375 C 4.382812 -1.484375 4.722656 -1.65625 4.953125 -2 C 5.191406 -2.351562 5.3125 -2.828125 5.3125 -3.421875 Z M 5.3125 -3.421875 "/></g></g></g><g fill="#000000" fill-opacity="1"><g transform="translate(32.938812, 19.233873)"><g><path d="M 2.84375 -4.359375 C 3.03125 -4.566406 3.222656 -4.78125 3.421875 -5 C 3.628906 -5.226562 3.828125 -5.453125 4.015625 -5.671875 C 4.210938 -5.890625 4.394531 -6.097656 4.5625 -6.296875 C 4.726562 -6.492188 4.875 -6.671875 5 -6.828125 L 7.28125 -6.828125 C 6.820312 -6.296875 6.375 -5.789062 5.9375 -5.3125 C 5.507812 -4.832031 5.035156 -4.335938 4.515625 -3.828125 C 4.773438 -3.585938 5.039062 -3.304688 5.3125 -2.984375 C 5.59375 -2.660156 5.863281 -2.328125 6.125 -1.984375 C 6.382812 -1.640625 6.617188 -1.289062 6.828125 -0.9375 C 7.046875 -0.59375 7.226562 -0.28125 7.375 0 L 5.15625 0 C 5.019531 -0.226562 4.863281 -0.476562 4.6875 -0.75 C 4.507812 -1.019531 4.320312 -1.289062 4.125 -1.5625 C 3.925781 -1.832031 3.71875 -2.09375 3.5 -2.34375 C 3.28125 -2.59375 3.0625 -2.804688 2.84375 -2.984375 L 2.84375 0 L 0.90625 0 L 0.90625 -9.75 L 2.84375 -10.0625 Z M 2.84375 -4.359375 "/></g></g></g><g fill="#000000" fill-opacity="1"><g transform="translate(40.444102, 19.233873)"><g/></g></g><g fill="#000000" fill-opacity="1"><g transform="translate(43.555104, 19.233873)"><g><path d="M 3.703125 0 C 3.347656 -0.75 3 -1.53125 2.65625 -2.34375 C 2.3125 -3.15625 1.984375 -3.957031 1.671875 -4.75 C 1.359375 -5.550781 1.070312 -6.3125 0.8125 -7.03125 C 0.550781 -7.757812 0.320312 -8.410156 0.125 -8.984375 L 2.359375 -8.984375 C 2.535156 -8.460938 2.722656 -7.898438 2.921875 -7.296875 C 3.128906 -6.703125 3.335938 -6.101562 3.546875 -5.5 C 3.753906 -4.90625 3.957031 -4.335938 4.15625 -3.796875 C 4.363281 -3.253906 4.550781 -2.785156 4.71875 -2.390625 C 4.882812 -2.785156 5.066406 -3.253906 5.265625 -3.796875 C 5.472656 -4.335938 5.679688 -4.90625 5.890625 -5.5 C 6.109375 -6.101562 6.316406 -6.703125 6.515625 -7.296875 C 6.722656 -7.898438 6.910156 -8.460938 7.078125 -8.984375 L 9.234375 -8.984375 C 9.035156 -8.410156 8.804688 -7.757812 8.546875 -7.03125 C 8.285156 -6.3125 8 -5.550781 7.6875 -4.75 C 7.375 -3.957031 7.046875 -3.15625 6.703125 -2.34375 C 6.359375 -1.53125 6.007812 -0.75 5.65625 0 Z M 3.703125 0 "/></g></g></g><g fill="#000000" fill-opacity="1"><g transform="translate(52.914038, 19.233873)"><g><path d="M 2.84375 0 L 0.90625 0 L 0.90625 -6.828125 L 2.84375 -6.828125 Z M 3.015625 -8.796875 C 3.015625 -8.441406 2.898438 -8.160156 2.671875 -7.953125 C 2.441406 -7.753906 2.175781 -7.65625 1.875 -7.65625 C 1.5625 -7.65625 1.289062 -7.753906 1.0625 -7.953125 C 0.832031 -8.160156 0.71875 -8.441406 0.71875 -8.796875 C 0.71875 -9.148438 0.832031 -9.425781 1.0625 -9.625 C 1.289062 -9.832031 1.5625 -9.9375 1.875 -9.9375 C 2.175781 -9.9375 2.441406 -9.832031 2.671875 -9.625 C 2.898438 -9.425781 3.015625 -9.148438 3.015625 -8.796875 Z M 3.015625 -8.796875 "/></g></g></g><g fill="#000000" fill-opacity="1"><g transform="translate(56.660199, 19.233873)"><g><path d="M 5.015625 -5.109375 C 4.847656 -5.148438 4.644531 -5.191406 4.40625 -5.234375 C 4.175781 -5.285156 3.925781 -5.3125 3.65625 -5.3125 C 3.53125 -5.3125 3.382812 -5.300781 3.21875 -5.28125 C 3.050781 -5.257812 2.925781 -5.238281 2.84375 -5.21875 L 2.84375 0 L 0.90625 0 L 0.90625 -6.453125 C 1.25 -6.578125 1.65625 -6.691406 2.125 -6.796875 C 2.601562 -6.910156 3.128906 -6.96875 3.703125 -6.96875 C 3.804688 -6.96875 3.929688 -6.957031 4.078125 -6.9375 C 4.234375 -6.925781 4.382812 -6.910156 4.53125 -6.890625 C 4.675781 -6.867188 4.820312 -6.84375 4.96875 -6.8125 C 5.113281 -6.78125 5.238281 -6.742188 5.34375 -6.703125 Z M 5.015625 -5.109375 "/></g></g></g><g fill="#000000" fill-opacity="1"><g transform="translate(62.130382, 19.233873)"><g><path d="M 0.84375 -8.515625 L 2.78125 -8.828125 L 2.78125 -6.828125 L 5.09375 -6.828125 L 5.09375 -5.21875 L 2.78125 -5.21875 L 2.78125 -2.8125 C 2.78125 -2.40625 2.847656 -2.082031 2.984375 -1.84375 C 3.128906 -1.601562 3.421875 -1.484375 3.859375 -1.484375 C 4.054688 -1.484375 4.265625 -1.5 4.484375 -1.53125 C 4.710938 -1.570312 4.914062 -1.628906 5.09375 -1.703125 L 5.375 -0.1875 C 5.132812 -0.09375 4.867188 -0.015625 4.578125 0.046875 C 4.296875 0.117188 3.953125 0.15625 3.546875 0.15625 C 3.015625 0.15625 2.578125 0.0859375 2.234375 -0.046875 C 1.890625 -0.191406 1.613281 -0.390625 1.40625 -0.640625 C 1.195312 -0.898438 1.050781 -1.210938 0.96875 -1.578125 C 0.882812 -1.941406 0.84375 -2.34375 0.84375 -2.78125 Z M 0.84375 -8.515625 "/></g></g></g><g fill="#000000" fill-opacity="1"><g transform="translate(67.885734, 19.233873)"><g><path d="M 6.734375 -0.234375 C 6.398438 -0.140625 5.972656 -0.0507812 5.453125 0.03125 C 4.941406 0.113281 4.398438 0.15625 3.828125 0.15625 C 3.242188 0.15625 2.757812 0.078125 2.375 -0.078125 C 1.988281 -0.234375 1.679688 -0.453125 1.453125 -0.734375 C 1.234375 -1.015625 1.078125 -1.347656 0.984375 -1.734375 C 0.890625 -2.128906 0.84375 -2.554688 0.84375 -3.015625 L 0.84375 -6.828125 L 2.78125 -6.828125 L 2.78125 -3.25 C 2.78125 -2.632812 2.859375 -2.1875 3.015625 -1.90625 C 3.179688 -1.625 3.488281 -1.484375 3.9375 -1.484375 C 4.082031 -1.484375 4.226562 -1.488281 4.375 -1.5 C 4.53125 -1.519531 4.671875 -1.539062 4.796875 -1.5625 L 4.796875 -6.828125 L 6.734375 -6.828125 Z M 6.734375 -0.234375 "/></g></g></g><g fill="#000000" fill-opacity="1"><g transform="translate(75.520656, 19.233873)"><g><path d="M 3.515625 -1.34375 C 3.703125 -1.34375 3.878906 -1.347656 4.046875 -1.359375 C 4.222656 -1.367188 4.363281 -1.382812 4.46875 -1.40625 L 4.46875 -2.859375 C 4.394531 -2.878906 4.28125 -2.894531 4.125 -2.90625 C 3.96875 -2.925781 3.828125 -2.9375 3.703125 -2.9375 C 3.515625 -2.9375 3.335938 -2.925781 3.171875 -2.90625 C 3.015625 -2.882812 2.875 -2.84375 2.75 -2.78125 C 2.632812 -2.726562 2.539062 -2.648438 2.46875 -2.546875 C 2.40625 -2.441406 2.375 -2.3125 2.375 -2.15625 C 2.375 -1.851562 2.472656 -1.640625 2.671875 -1.515625 C 2.878906 -1.398438 3.160156 -1.34375 3.515625 -1.34375 Z M 3.359375 -7 C 3.929688 -7 4.40625 -6.929688 4.78125 -6.796875 C 5.164062 -6.671875 5.472656 -6.488281 5.703125 -6.25 C 5.929688 -6.007812 6.09375 -5.710938 6.1875 -5.359375 C 6.28125 -5.015625 6.328125 -4.632812 6.328125 -4.21875 L 6.328125 -0.1875 C 6.046875 -0.132812 5.660156 -0.0664062 5.171875 0.015625 C 4.679688 0.0976562 4.085938 0.140625 3.390625 0.140625 C 2.941406 0.140625 2.535156 0.0976562 2.171875 0.015625 C 1.816406 -0.0546875 1.507812 -0.179688 1.25 -0.359375 C 1 -0.535156 0.800781 -0.765625 0.65625 -1.046875 C 0.519531 -1.335938 0.453125 -1.6875 0.453125 -2.09375 C 0.453125 -2.5 0.53125 -2.835938 0.6875 -3.109375 C 0.851562 -3.390625 1.066406 -3.609375 1.328125 -3.765625 C 1.597656 -3.929688 1.90625 -4.050781 2.25 -4.125 C 2.601562 -4.195312 2.960938 -4.234375 3.328125 -4.234375 C 3.578125 -4.234375 3.800781 -4.222656 4 -4.203125 C 4.195312 -4.179688 4.351562 -4.15625 4.46875 -4.125 L 4.46875 -4.3125 C 4.46875 -4.632812 4.367188 -4.894531 4.171875 -5.09375 C 3.972656 -5.289062 3.628906 -5.390625 3.140625 -5.390625 C 2.804688 -5.390625 2.476562 -5.363281 2.15625 -5.3125 C 1.84375 -5.269531 1.566406 -5.207031 1.328125 -5.125 L 1.09375 -6.671875 C 1.207031 -6.710938 1.347656 -6.75 1.515625 -6.78125 C 1.679688 -6.820312 1.863281 -6.859375 2.0625 -6.890625 C 2.257812 -6.921875 2.46875 -6.945312 2.6875 -6.96875 C 2.90625 -6.988281 3.128906 -7 3.359375 -7 Z M 3.359375 -7 "/></g></g></g><g fill="#000000" fill-opacity="1"><g transform="translate(82.688925, 19.233873)"><g><path d="M 3.625 0.125 C 3.0625 0.113281 2.601562 0.0546875 2.25 -0.046875 C 1.90625 -0.160156 1.628906 -0.316406 1.421875 -0.515625 C 1.222656 -0.722656 1.085938 -0.972656 1.015625 -1.265625 C 0.941406 -1.554688 0.90625 -1.882812 0.90625 -2.25 L 0.90625 -9.75 L 2.84375 -10.0625 L 2.84375 -2.625 C 2.84375 -2.457031 2.851562 -2.300781 2.875 -2.15625 C 2.90625 -2.019531 2.957031 -1.90625 3.03125 -1.8125 C 3.101562 -1.71875 3.207031 -1.640625 3.34375 -1.578125 C 3.476562 -1.515625 3.664062 -1.476562 3.90625 -1.46875 Z M 3.625 0.125 "/></g></g></g><g fill="#000000" fill-opacity="1"><g transform="translate(86.785076, 19.233873)"><g/></g></g><g fill="#000000" fill-opacity="1"><g transform="translate(89.896078, 19.233873)"><g><path d="M 3.421875 -8.984375 C 3.578125 -8.703125 3.753906 -8.347656 3.953125 -7.921875 C 4.160156 -7.503906 4.375 -7.050781 4.59375 -6.5625 C 4.8125 -6.082031 5.03125 -5.585938 5.25 -5.078125 C 5.46875 -4.566406 5.671875 -4.082031 5.859375 -3.625 C 6.046875 -4.082031 6.25 -4.566406 6.46875 -5.078125 C 6.6875 -5.585938 6.90625 -6.082031 7.125 -6.5625 C 7.34375 -7.050781 7.550781 -7.503906 7.75 -7.921875 C 7.957031 -8.347656 8.140625 -8.703125 8.296875 -8.984375 L 10.140625 -8.984375 C 10.222656 -8.390625 10.300781 -7.722656 10.375 -6.984375 C 10.445312 -6.242188 10.507812 -5.472656 10.5625 -4.671875 C 10.625 -3.867188 10.675781 -3.066406 10.71875 -2.265625 C 10.769531 -1.460938 10.816406 -0.707031 10.859375 0 L 8.890625 0 C 8.859375 -0.875 8.820312 -1.820312 8.78125 -2.84375 C 8.738281 -3.875 8.671875 -4.914062 8.578125 -5.96875 C 8.429688 -5.601562 8.257812 -5.195312 8.0625 -4.75 C 7.875 -4.3125 7.6875 -3.875 7.5 -3.4375 C 7.3125 -3 7.128906 -2.578125 6.953125 -2.171875 C 6.785156 -1.765625 6.640625 -1.421875 6.515625 -1.140625 L 5.109375 -1.140625 C 4.984375 -1.421875 4.832031 -1.765625 4.65625 -2.171875 C 4.488281 -2.578125 4.3125 -3 4.125 -3.4375 C 3.945312 -3.875 3.757812 -4.3125 3.5625 -4.75 C 3.375 -5.195312 3.203125 -5.601562 3.046875 -5.96875 C 2.960938 -4.914062 2.894531 -3.875 2.84375 -2.84375 C 2.800781 -1.820312 2.769531 -0.875 2.75 0 L 0.78125 0 C 0.8125 -0.707031 0.847656 -1.460938 0.890625 -2.265625 C 0.941406 -3.066406 0.992188 -3.867188 1.046875 -4.671875 C 1.109375 -5.472656 1.175781 -6.242188 1.25 -6.984375 C 1.320312 -7.722656 1.398438 -8.390625 1.484375 -8.984375 Z M 3.421875 -8.984375 "/></g></g></g><g fill="#000000" fill-opacity="1"><g transform="translate(101.523445, 19.233873)"><g><path d="M 0.578125 -3.359375 C 0.578125 -3.960938 0.671875 -4.488281 0.859375 -4.9375 C 1.046875 -5.394531 1.289062 -5.773438 1.59375 -6.078125 C 1.894531 -6.378906 2.242188 -6.609375 2.640625 -6.765625 C 3.035156 -6.921875 3.441406 -7 3.859375 -7 C 4.816406 -7 5.578125 -6.703125 6.140625 -6.109375 C 6.703125 -5.515625 6.984375 -4.644531 6.984375 -3.5 C 6.984375 -3.382812 6.976562 -3.257812 6.96875 -3.125 C 6.96875 -3 6.960938 -2.882812 6.953125 -2.78125 L 2.5625 -2.78125 C 2.601562 -2.375 2.789062 -2.054688 3.125 -1.828125 C 3.457031 -1.597656 3.898438 -1.484375 4.453125 -1.484375 C 4.804688 -1.484375 5.148438 -1.515625 5.484375 -1.578125 C 5.828125 -1.640625 6.109375 -1.71875 6.328125 -1.8125 L 6.59375 -0.25 C 6.488281 -0.195312 6.347656 -0.144531 6.171875 -0.09375 C 5.992188 -0.0390625 5.800781 0.00390625 5.59375 0.046875 C 5.382812 0.0859375 5.15625 0.117188 4.90625 0.140625 C 4.664062 0.171875 4.425781 0.1875 4.1875 0.1875 C 3.570312 0.1875 3.035156 0.0976562 2.578125 -0.078125 C 2.128906 -0.265625 1.753906 -0.515625 1.453125 -0.828125 C 1.160156 -1.148438 0.941406 -1.523438 0.796875 -1.953125 C 0.648438 -2.390625 0.578125 -2.859375 0.578125 -3.359375 Z M 5.125 -4.09375 C 5.113281 -4.257812 5.082031 -4.421875 5.03125 -4.578125 C 4.988281 -4.734375 4.914062 -4.867188 4.8125 -4.984375 C 4.71875 -5.109375 4.59375 -5.207031 4.4375 -5.28125 C 4.289062 -5.363281 4.101562 -5.40625 3.875 -5.40625 C 3.65625 -5.40625 3.46875 -5.367188 3.3125 -5.296875 C 3.164062 -5.222656 3.039062 -5.125 2.9375 -5 C 2.832031 -4.882812 2.75 -4.742188 2.6875 -4.578125 C 2.632812 -4.421875 2.59375 -4.257812 2.5625 -4.09375 Z M 5.125 -4.09375 "/></g></g></g><g fill="#000000" fill-opacity="1"><g transform="translate(109.093557, 19.233873)"><g><path d="M 0.578125 -3.359375 C 0.578125 -3.960938 0.671875 -4.488281 0.859375 -4.9375 C 1.046875 -5.394531 1.289062 -5.773438 1.59375 -6.078125 C 1.894531 -6.378906 2.242188 -6.609375 2.640625 -6.765625 C 3.035156 -6.921875 3.441406 -7 3.859375 -7 C 4.816406 -7 5.578125 -6.703125 6.140625 -6.109375 C 6.703125 -5.515625 6.984375 -4.644531 6.984375 -3.5 C 6.984375 -3.382812 6.976562 -3.257812 6.96875 -3.125 C 6.96875 -3 6.960938 -2.882812 6.953125 -2.78125 L 2.5625 -2.78125 C 2.601562 -2.375 2.789062 -2.054688 3.125 -1.828125 C 3.457031 -1.597656 3.898438 -1.484375 4.453125 -1.484375 C 4.804688 -1.484375 5.148438 -1.515625 5.484375 -1.578125 C 5.828125 -1.640625 6.109375 -1.71875 6.328125 -1.8125 L 6.59375 -0.25 C 6.488281 -0.195312 6.347656 -0.144531 6.171875 -0.09375 C 5.992188 -0.0390625 5.800781 0.00390625 5.59375 0.046875 C 5.382812 0.0859375 5.15625 0.117188 4.90625 0.140625 C 4.664062 0.171875 4.425781 0.1875 4.1875 0.1875 C 3.570312 0.1875 3.035156 0.0976562 2.578125 -0.078125 C 2.128906 -0.265625 1.753906 -0.515625 1.453125 -0.828125 C 1.160156 -1.148438 0.941406 -1.523438 0.796875 -1.953125 C 0.648438 -2.390625 0.578125 -2.859375 0.578125 -3.359375 Z M 5.125 -4.09375 C 5.113281 -4.257812 5.082031 -4.421875 5.03125 -4.578125 C 4.988281 -4.734375 4.914062 -4.867188 4.8125 -4.984375 C 4.71875 -5.109375 4.59375 -5.207031 4.4375 -5.28125 C 4.289062 -5.363281 4.101562 -5.40625 3.875 -5.40625 C 3.65625 -5.40625 3.46875 -5.367188 3.3125 -5.296875 C 3.164062 -5.222656 3.039062 -5.125 2.9375 -5 C 2.832031 -4.882812 2.75 -4.742188 2.6875 -4.578125 C 2.632812 -4.421875 2.59375 -4.257812 2.5625 -4.09375 Z M 5.125 -4.09375 "/></g></g></g><g fill="#000000" fill-opacity="1"><g transform="translate(116.663668, 19.233873)"><g><path d="M 0.84375 -8.515625 L 2.78125 -8.828125 L 2.78125 -6.828125 L 5.09375 -6.828125 L 5.09375 -5.21875 L 2.78125 -5.21875 L 2.78125 -2.8125 C 2.78125 -2.40625 2.847656 -2.082031 2.984375 -1.84375 C 3.128906 -1.601562 3.421875 -1.484375 3.859375 -1.484375 C 4.054688 -1.484375 4.265625 -1.5 4.484375 -1.53125 C 4.710938 -1.570312 4.914062 -1.628906 5.09375 -1.703125 L 5.375 -0.1875 C 5.132812 -0.09375 4.867188 -0.015625 4.578125 0.046875 C 4.296875 0.117188 3.953125 0.15625 3.546875 0.15625 C 3.015625 0.15625 2.578125 0.0859375 2.234375 -0.046875 C 1.890625 -0.191406 1.613281 -0.390625 1.40625 -0.640625 C 1.195312 -0.898438 1.050781 -1.210938 0.96875 -1.578125 C 0.882812 -1.941406 0.84375 -2.34375 0.84375 -2.78125 Z M 0.84375 -8.515625 "/></g></g></g><g fill="#000000" fill-opacity="1"><g transform="translate(122.41902, 19.233873)"><g><path d="M 2.84375 0 L 0.90625 0 L 0.90625 -6.828125 L 2.84375 -6.828125 Z M 3.015625 -8.796875 C 3.015625 -8.441406 2.898438 -8.160156 2.671875 -7.953125 C 2.441406 -7.753906 2.175781 -7.65625 1.875 -7.65625 C 1.5625 -7.65625 1.289062 -7.753906 1.0625 -7.953125 C 0.832031 -8.160156 0.71875 -8.441406 0.71875 -8.796875 C 0.71875 -9.148438 0.832031 -9.425781 1.0625 -9.625 C 1.289062 -9.832031 1.5625 -9.9375 1.875 -9.9375 C 2.175781 -9.9375 2.441406 -9.832031 2.671875 -9.625 C 2.898438 -9.425781 3.015625 -9.148438 3.015625 -8.796875 Z M 3.015625 -8.796875 "/></g></g></g><g fill="#000000" fill-opacity="1"><g transform="translate(126.165181, 19.233873)"><g><path d="M 0.90625 -6.59375 C 1.238281 -6.6875 1.660156 -6.773438 2.171875 -6.859375 C 2.691406 -6.941406 3.238281 -6.984375 3.8125 -6.984375 C 4.394531 -6.984375 4.878906 -6.90625 5.265625 -6.75 C 5.648438 -6.59375 5.953125 -6.375 6.171875 -6.09375 C 6.398438 -5.820312 6.5625 -5.492188 6.65625 -5.109375 C 6.75 -4.734375 6.796875 -4.316406 6.796875 -3.859375 L 6.796875 0 L 4.859375 0 L 4.859375 -3.625 C 4.859375 -4.238281 4.773438 -4.675781 4.609375 -4.9375 C 4.453125 -5.195312 4.148438 -5.328125 3.703125 -5.328125 C 3.554688 -5.328125 3.40625 -5.320312 3.25 -5.3125 C 3.09375 -5.300781 2.957031 -5.285156 2.84375 -5.265625 L 2.84375 0 L 0.90625 0 Z M 0.90625 -6.59375 "/></g></g></g><g fill="#000000" fill-opacity="1"><g transform="translate(133.800103, 19.233873)"><g><path d="M 2.5625 -3.625 C 2.5625 -2.550781 2.992188 -2.015625 3.859375 -2.015625 C 4.054688 -2.015625 4.242188 -2.039062 4.421875 -2.09375 C 4.597656 -2.144531 4.742188 -2.203125 4.859375 -2.265625 L 4.859375 -5.359375 C 4.765625 -5.367188 4.648438 -5.378906 4.515625 -5.390625 C 4.390625 -5.410156 4.242188 -5.421875 4.078125 -5.421875 C 3.566406 -5.421875 3.1875 -5.25 2.9375 -4.90625 C 2.6875 -4.570312 2.5625 -4.144531 2.5625 -3.625 Z M 6.796875 -0.859375 C 6.796875 0.253906 6.507812 1.082031 5.9375 1.625 C 5.375 2.164062 4.5 2.4375 3.3125 2.4375 C 2.90625 2.4375 2.492188 2.398438 2.078125 2.328125 C 1.660156 2.253906 1.273438 2.15625 0.921875 2.03125 L 1.265625 0.421875 C 1.566406 0.535156 1.878906 0.625 2.203125 0.6875 C 2.535156 0.757812 2.914062 0.796875 3.34375 0.796875 C 3.894531 0.796875 4.285156 0.675781 4.515625 0.4375 C 4.742188 0.195312 4.859375 -0.113281 4.859375 -0.5 L 4.859375 -0.734375 C 4.648438 -0.640625 4.4375 -0.566406 4.21875 -0.515625 C 4 -0.472656 3.757812 -0.453125 3.5 -0.453125 C 2.5625 -0.453125 1.835938 -0.726562 1.328125 -1.28125 C 0.828125 -1.84375 0.578125 -2.625 0.578125 -3.625 C 0.578125 -4.132812 0.65625 -4.59375 0.8125 -5 C 0.96875 -5.40625 1.195312 -5.753906 1.5 -6.046875 C 1.800781 -6.347656 2.164062 -6.578125 2.59375 -6.734375 C 3.03125 -6.898438 3.519531 -6.984375 4.0625 -6.984375 C 4.289062 -6.984375 4.53125 -6.96875 4.78125 -6.9375 C 5.03125 -6.914062 5.273438 -6.890625 5.515625 -6.859375 C 5.753906 -6.828125 5.984375 -6.785156 6.203125 -6.734375 C 6.421875 -6.691406 6.617188 -6.644531 6.796875 -6.59375 Z M 6.796875 -0.859375 "/></g></g></g></svg>